<svg width="2000px" height="1071px"
 viewBox="0.00 0.00 1263.87 676.95" xmlns="http://www.w3.org/2000/svg" xmlns:xlink="http://www.w3.org/1999/xlink">
<g id="graph0" class="graph" transform="scale(1.0 1.0) rotate(0) translate(4 672.95)">
<title>ContextMapGraph</title>
<polygon fill="white" stroke="transparent" points="-4,4 -4,-672.95 1259.87,-672.95 1259.87,4 -4,4"/>
<!-- Abastecimiento -->
<g id="node1" class="node">
<title>Abastecimiento</title>
<polygon fill="none" stroke="black" stroke-width="2" points="247.5,-465.36 248.84,-462.54 250.49,-459.76 252.46,-457.03 254.74,-454.36 257.32,-451.77 260.19,-449.26 263.34,-446.84 266.76,-444.53 270.45,-442.32 274.39,-440.24 278.58,-438.28 283,-436.46 287.63,-434.77 292.47,-433.23 297.5,-431.83 302.71,-430.59 308.08,-429.5 313.61,-428.57 319.27,-427.79 325.04,-427.18 330.93,-426.71 336.9,-426.41 342.95,-426.25 349.05,-426.25 355.2,-426.39 361.37,-426.67 367.55,-427.1 373.73,-427.65 379.88,-428.34 386,-429.14 392.06,-430.06 398.06,-431.09 403.96,-432.22 409.77,-433.45 415.46,-434.77 421.03,-436.16 426.44,-437.64 431.7,-439.18 436.79,-440.79 441.69,-442.45 446.39,-444.16 450.88,-445.91 455.14,-447.7 459.17,-449.53 462.95,-451.38 466.48,-453.25 469.74,-455.15 472.72,-457.05 475.42,-458.97 477.82,-460.9 479.93,-462.83 481.73,-464.77 483.21,-466.7 484.38,-468.63 485.23,-470.56 485.76,-472.48 485.96,-474.4 485.83,-476.31 485.38,-478.2 484.59,-480.09 483.48,-481.96 482.04,-483.82 480.29,-485.67 478.21,-487.5 475.82,-489.31 473.13,-491.1 470.13,-492.87 466.84,-494.61 463.27,-496.33 459.42,-498.02 455.31,-499.68 450.94,-501.31 446.33,-502.89 441.49,-504.43 436.44,-505.93 431.18,-507.37 425.73,-508.76 420.11,-510.09 414.34,-511.35 408.42,-512.53 402.38,-513.64 396.24,-514.67 390,-515.61 383.7,-516.45 377.34,-517.19 370.94,-517.83 364.53,-518.35 358.13,-518.76 351.74,-519.04 345.39,-519.2 339.1,-519.22 332.89,-519.11 326.77,-518.87 320.76,-518.48 314.88,-517.94 309.14,-517.26 303.57,-516.43 298.17,-515.46 292.97,-514.34 287.97,-513.07 283.2,-511.66 278.66,-510.11 274.38,-508.42 270.35,-506.59 266.59,-504.64 263.11,-502.56 259.93,-500.37 257.04,-498.07 254.46,-495.67 252.19,-493.17 250.24,-490.59 248.61,-487.94 247.31,-485.22 246.35,-482.45 245.71,-479.64 245.4,-476.8 245.43,-473.94 245.79,-471.07 246.48,-468.2 247.5,-465.36"/>
<text text-anchor="middle" x="365.87" y="-469.65" font-family="sans-serif" font-size="16.00">Abastecimiento</text>
</g>
<!-- Inventario -->
<g id="node2" class="node">
<title>Inventario</title>
<polygon fill="none" stroke="black" stroke-width="2" points="634.83,-287.29 640.59,-287.73 646.28,-288.29 651.86,-288.96 657.33,-289.74 662.65,-290.63 667.8,-291.63 672.77,-292.74 677.53,-293.94 682.07,-295.25 686.37,-296.65 690.42,-298.14 694.19,-299.71 697.69,-301.37 700.9,-303.1 703.8,-304.91 706.4,-306.78 708.69,-308.72 710.66,-310.72 712.32,-312.76 713.65,-314.86 714.67,-316.99 715.37,-319.16 715.77,-321.36 715.86,-323.58 715.65,-325.82 715.15,-328.07 714.36,-330.33 713.31,-332.58 712,-334.84 710.44,-337.08 708.64,-339.3 706.62,-341.5 704.39,-343.67 701.96,-345.81 699.35,-347.9 696.57,-349.95 693.64,-351.95 690.56,-353.89 687.36,-355.77 684.04,-357.58 680.61,-359.32 677.09,-360.99 673.5,-362.57 669.83,-364.07 666.11,-365.48 662.33,-366.79 658.51,-368.01 654.66,-369.13 650.78,-370.15 646.89,-371.06 642.98,-371.86 639.06,-372.54 635.13,-373.12 631.21,-373.58 627.29,-373.92 623.38,-374.15 619.48,-374.25 615.59,-374.24 611.72,-374.11 607.87,-373.85 604.03,-373.48 600.22,-372.99 596.44,-372.39 592.69,-371.66 588.96,-370.82 585.28,-369.87 581.63,-368.81 578.03,-367.65 574.48,-366.38 570.98,-365.01 567.55,-363.54 564.18,-361.98 560.89,-360.33 557.68,-358.59 554.57,-356.78 551.56,-354.89 548.66,-352.93 545.89,-350.91 543.25,-348.83 540.75,-346.7 538.41,-344.52 536.24,-342.3 534.25,-340.05 532.45,-337.76 530.85,-335.46 529.48,-333.15 528.33,-330.82 527.42,-328.5 526.75,-326.18 526.35,-323.87 526.22,-321.58 526.36,-319.32 526.79,-317.08 527.5,-314.89 528.52,-312.74 529.83,-310.64 531.44,-308.6 533.36,-306.62 535.57,-304.7 538.09,-302.86 540.91,-301.1 544.01,-299.42 547.4,-297.83 551.07,-296.33 555,-294.93 559.19,-293.63 563.61,-292.43 568.27,-291.34 573.13,-290.36 578.19,-289.49 583.42,-288.73 588.81,-288.1 594.33,-287.58 599.96,-287.17 605.69,-286.89 611.48,-286.73 617.31,-286.69 623.16,-286.77 629.01,-286.97 634.83,-287.29"/>
<text text-anchor="middle" x="619.87" y="-326.72" font-family="sans-serif" font-size="16.00">Inventario</text>
</g>
<!-- Abastecimiento&#45;&gt;Inventario -->
<g id="edge1" class="edge">
<title>Abastecimiento&#45;&gt;Inventario</title>
<path fill="none" stroke="black" stroke-width="2" d="M428.01,-437.97C469.72,-414.83 524.19,-384.61 564.43,-362.28"/>
<text text-anchor="middle" x="535.37" y="-397.01" font-family="sans-serif" font-size="12.00">Partnership</text>
</g>
<!-- ManejoOrdenes -->
<g id="node3" class="node">
<title>ManejoOrdenes</title>
<polygon fill="none" stroke="black" stroke-width="2" points="573.49,-232 566.18,-230.94 559.05,-229.77 552.12,-228.5 545.42,-227.14 538.97,-225.68 532.82,-224.14 526.97,-222.52 521.45,-220.82 516.29,-219.05 511.5,-217.21 507.1,-215.31 503.11,-213.36 499.54,-211.37 496.4,-209.32 493.69,-207.25 491.43,-205.13 489.62,-203 488.26,-200.84 487.35,-198.66 486.89,-196.48 486.87,-194.29 487.28,-192.1 488.12,-189.92 489.38,-187.75 491.04,-185.59 493.09,-183.46 495.51,-181.34 498.29,-179.26 501.41,-177.22 504.85,-175.21 508.58,-173.24 512.6,-171.33 516.87,-169.46 521.39,-167.65 526.11,-165.9 531.03,-164.21 536.12,-162.59 541.37,-161.04 546.74,-159.57 552.23,-158.17 557.81,-156.85 563.46,-155.62 569.17,-154.48 574.91,-153.42 580.68,-152.46 586.46,-151.6 592.23,-150.83 597.99,-150.17 603.71,-149.61 609.4,-149.15 615.03,-148.81 620.61,-148.57 626.13,-148.44 631.57,-148.43 636.93,-148.53 642.21,-148.74 647.41,-149.07 652.51,-149.51 657.52,-150.07 662.43,-150.74 667.24,-151.52 671.95,-152.42 676.54,-153.43 681.03,-154.55 685.41,-155.77 689.67,-157.1 693.81,-158.54 697.82,-160.07 701.71,-161.7 705.46,-163.42 709.06,-165.23 712.53,-167.12 715.83,-169.09 718.97,-171.13 721.95,-173.24 724.74,-175.41 727.34,-177.63 729.74,-179.91 731.92,-182.22 733.89,-184.57 735.62,-186.95 737.1,-189.35 738.33,-191.76 739.28,-194.18 739.95,-196.6 740.33,-199 740.41,-201.39 740.17,-203.75 739.61,-206.09 738.71,-208.38 737.47,-210.62 735.88,-212.81 733.94,-214.93 731.65,-216.99 728.99,-218.97 725.96,-220.87 722.58,-222.68 718.84,-224.39 714.74,-226.01 710.29,-227.52 705.5,-228.93 700.38,-230.22 694.94,-231.39 689.2,-232.45 683.16,-233.38 676.85,-234.18 670.29,-234.86 663.5,-235.41 656.49,-235.83 649.31,-236.11 641.96,-236.27 634.48,-236.3 626.9,-236.19 619.25,-235.96 611.55,-235.61 603.84,-235.12 596.15,-234.52 588.51,-233.79 580.94,-232.95 573.49,-232"/>
<text text-anchor="middle" x="619.87" y="-187.78" font-family="sans-serif" font-size="16.00">ManejoOrdenes</text>
</g>
<!-- Inventario&#45;&gt;ManejoOrdenes -->
<g id="edge2" class="edge">
<title>Inventario&#45;&gt;ManejoOrdenes</title>
<path fill="none" stroke="black" stroke-width="2" d="M619.87,-286.57C619.87,-270.57 619.87,-252.4 619.87,-236.32"/>
<text text-anchor="middle" x="675.87" y="-257.84" font-family="sans-serif" font-size="12.00">Customer/Supplier</text>
<polygon fill="white" stroke="transparent" points="612.87,-227.32 612.87,-244.32 626.87,-244.32 626.87,-227.32 612.87,-227.32"/>
<text text-anchor="start" x="614.87" y="-232.72" font-family="sans-serif" font-size="12.00">D</text>
<polygon fill="white" stroke="transparent" points="612.87,-277.57 612.87,-294.57 626.87,-294.57 626.87,-277.57 612.87,-277.57"/>
<text text-anchor="start" x="614.87" y="-282.97" font-family="sans-serif" font-size="12.00">U</text>
</g>
<!-- Soporte -->
<g id="node4" class="node">
<title>Soporte</title>
<polygon fill="none" stroke="black" stroke-width="2" points="668.67,-15.07 672.57,-16.87 676.31,-18.75 679.87,-20.7 683.24,-22.72 686.41,-24.8 689.36,-26.93 692.08,-29.11 694.57,-31.33 696.8,-33.57 698.77,-35.84 700.47,-38.13 701.9,-40.42 703.05,-42.72 703.91,-45.01 704.49,-47.29 704.79,-49.55 704.79,-51.79 704.52,-54.01 703.96,-56.19 703.13,-58.33 702.02,-60.43 700.65,-62.48 699.03,-64.48 697.15,-66.43 695.04,-68.32 692.71,-70.15 690.16,-71.91 687.41,-73.61 684.47,-75.24 681.36,-76.8 678.09,-78.28 674.67,-79.69 671.12,-81.03 667.46,-82.28 663.69,-83.45 659.84,-84.55 655.92,-85.56 651.95,-86.48 647.93,-87.32 643.88,-88.08 639.82,-88.75 635.76,-89.32 631.71,-89.81 627.68,-90.21 623.69,-90.52 619.74,-90.73 615.84,-90.85 612.01,-90.87 608.25,-90.8 604.56,-90.63 600.96,-90.36 597.45,-89.99 594.04,-89.53 590.73,-88.96 587.52,-88.3 584.42,-87.53 581.44,-86.66 578.56,-85.7 575.81,-84.63 573.17,-83.46 570.65,-82.2 568.25,-80.84 565.97,-79.38 563.82,-77.83 561.78,-76.19 559.88,-74.46 558.1,-72.65 556.44,-70.75 554.91,-68.78 553.52,-66.73 552.25,-64.61 551.11,-62.43 550.11,-60.19 549.24,-57.9 548.52,-55.57 547.93,-53.19 547.49,-50.78 547.19,-48.35 547.04,-45.89 547.05,-43.43 547.22,-40.97 547.54,-38.51 548.03,-36.07 548.68,-33.65 549.51,-31.26 550.51,-28.92 551.68,-26.62 553.03,-24.38 554.57,-22.21 556.28,-20.11 558.18,-18.09 560.26,-16.17 562.52,-14.34 564.97,-12.61 567.59,-11 570.4,-9.5 573.38,-8.12 576.53,-6.88 579.84,-5.77 583.32,-4.79 586.94,-3.95 590.71,-3.26 594.61,-2.72 598.64,-2.32 602.78,-2.07 607.02,-1.97 611.35,-2.02 615.76,-2.22 620.23,-2.56 624.74,-3.05 629.28,-3.69 633.83,-4.46 638.38,-5.36 642.91,-6.4 647.4,-7.56 651.84,-8.85 656.2,-10.24 660.47,-11.75 664.64,-13.36 668.67,-15.07"/>
<text text-anchor="middle" x="619.87" y="-45.06" font-family="sans-serif" font-size="16.00">Soporte</text>
</g>
<!-- ManejoOrdenes&#45;&gt;Soporte -->
<g id="edge3" class="edge">
<title>ManejoOrdenes&#45;&gt;Soporte</title>
<path fill="none" stroke="black" stroke-width="2" d="M619.87,-148.36C619.87,-130.23 619.87,-109.11 619.87,-91.08"/>
<text text-anchor="middle" x="654.37" y="-119.12" font-family="sans-serif" font-size="12.00">Partnership</text>
</g>
<!-- RastreoOrdenes -->
<g id="node5" class="node">
<title>RastreoOrdenes</title>
<polygon fill="none" stroke="black" stroke-width="2" points="757.98,-66.93 754.6,-64.34 751.54,-61.71 748.82,-59.07 746.45,-56.41 744.45,-53.74 742.82,-51.09 741.58,-48.45 740.72,-45.84 740.26,-43.26 740.21,-40.73 740.55,-38.26 741.3,-35.84 742.44,-33.49 743.99,-31.22 745.93,-29.03 748.26,-26.92 750.98,-24.91 754.06,-22.99 757.51,-21.18 761.31,-19.46 765.44,-17.86 769.9,-16.36 774.66,-14.97 779.7,-13.69 785.02,-12.53 790.58,-11.47 796.37,-10.53 802.37,-9.7 808.56,-8.97 814.9,-8.36 821.39,-7.85 827.99,-7.44 834.69,-7.13 841.45,-6.93 848.26,-6.82 855.1,-6.8 861.93,-6.88 868.74,-7.05 875.51,-7.3 882.22,-7.64 888.83,-8.06 895.34,-8.56 901.73,-9.14 907.98,-9.8 914.06,-10.52 919.97,-11.32 925.68,-12.2 931.19,-13.14 936.49,-14.15 941.55,-15.23 946.37,-16.37 950.94,-17.58 955.26,-18.85 959.31,-20.19 963.09,-21.6 966.59,-23.06 969.8,-24.59 972.74,-26.18 975.38,-27.83 977.74,-29.54 979.81,-31.3 981.58,-33.13 983.07,-35.01 984.27,-36.94 985.18,-38.92 985.8,-40.95 986.14,-43.02 986.2,-45.14 985.99,-47.3 985.5,-49.48 984.74,-51.7 983.71,-53.94 982.42,-56.2 980.87,-58.48 979.07,-60.76 977.02,-63.04 974.73,-65.31 972.19,-67.57 969.41,-69.81 966.41,-72.01 963.18,-74.18 959.73,-76.3 956.06,-78.37 952.18,-80.38 948.1,-82.31 943.82,-84.17 939.35,-85.93 934.69,-87.6 929.86,-89.17 924.85,-90.62 919.69,-91.96 914.37,-93.16 908.91,-94.24 903.31,-95.17 897.59,-95.96 891.76,-96.6 885.83,-97.08 879.81,-97.41 873.71,-97.58 867.56,-97.58 861.36,-97.42 855.13,-97.1 848.88,-96.61 842.64,-95.95 836.41,-95.14 830.23,-94.16 824.09,-93.03 818.03,-91.74 812.07,-90.31 806.21,-88.74 800.48,-87.03 794.91,-85.2 789.5,-83.24 784.28,-81.18 779.27,-79.01 774.49,-76.74 769.95,-74.39 765.68,-71.96 761.68,-69.47 757.98,-66.93"/>
<text text-anchor="middle" x="868.87" y="-45.06" font-family="sans-serif" font-size="16.00">RastreoOrdenes</text>
</g>
<!-- ManejoOrdenes&#45;&gt;RastreoOrdenes -->
<g id="edge4" class="edge">
<title>ManejoOrdenes&#45;&gt;RastreoOrdenes</title>
<path fill="none" stroke="black" stroke-width="2" d="M683.02,-154.89C719.33,-134.37 764.92,-108.61 801.86,-87.73"/>
<text text-anchor="middle" x="785.37" y="-119.12" font-family="sans-serif" font-size="12.00">Partnership</text>
</g>
<!-- Almacenamiento -->
<g id="node6" class="node">
<title>Almacenamiento</title>
<polygon fill="none" stroke="black" stroke-width="2" points="423.48,-581.01 431.04,-582.25 438.39,-583.6 445.51,-585.04 452.36,-586.57 458.91,-588.18 465.15,-589.87 471.04,-591.64 476.56,-593.47 481.69,-595.37 486.41,-597.32 490.7,-599.32 494.55,-601.36 497.94,-603.45 500.87,-605.56 503.32,-607.7 505.29,-609.86 506.78,-612.04 507.78,-614.23 508.31,-616.41 508.35,-618.6 507.93,-620.79 507.04,-622.96 505.7,-625.11 503.91,-627.24 501.71,-629.35 499.09,-631.43 496.08,-633.47 492.7,-635.47 488.96,-637.43 484.89,-639.35 480.51,-641.21 475.85,-643.02 470.92,-644.77 465.75,-646.46 460.37,-648.09 454.79,-649.64 449.04,-651.13 443.14,-652.54 437.12,-653.88 430.99,-655.13 424.79,-656.3 418.53,-657.38 412.22,-658.38 405.89,-659.29 399.56,-660.1 393.23,-660.81 386.93,-661.43 380.68,-661.94 374.47,-662.36 368.33,-662.67 362.26,-662.87 356.28,-662.96 350.39,-662.95 344.59,-662.83 338.91,-662.59 333.33,-662.25 327.87,-661.79 322.53,-661.22 317.32,-660.54 312.23,-659.75 307.27,-658.84 302.45,-657.83 297.77,-656.71 293.22,-655.48 288.81,-654.14 284.56,-652.71 280.45,-651.18 276.49,-649.55 272.69,-647.83 269.05,-646.02 265.58,-644.12 262.29,-642.15 259.17,-640.1 256.25,-637.99 253.52,-635.81 250.99,-633.58 248.68,-631.3 246.59,-628.97 244.74,-626.61 243.13,-624.21 241.78,-621.8 240.69,-619.37 239.88,-616.93 239.36,-614.5 239.14,-612.08 239.23,-609.67 239.63,-607.29 240.37,-604.94 241.45,-602.63 242.87,-600.37 244.65,-598.16 246.78,-596.02 249.28,-593.95 252.15,-591.96 255.39,-590.06 258.99,-588.24 262.96,-586.52 267.29,-584.91 271.98,-583.4 277.02,-582 282.41,-580.73 288.12,-579.57 294.15,-578.54 300.48,-577.63 307.09,-576.86 313.97,-576.22 321.09,-575.71 328.42,-575.33 335.96,-575.09 343.67,-574.99 351.51,-575.02 359.47,-575.18 367.52,-575.48 375.61,-575.9 383.73,-576.45 391.83,-577.13 399.89,-577.93 407.88,-578.84 415.75,-579.87 423.48,-581.01"/>
<text text-anchor="middle" x="365.87" y="-616.32" font-family="sans-serif" font-size="16.00">Almacenamiento</text>
</g>
<!-- Almacenamiento&#45;&gt;Abastecimiento -->
<g id="edge6" class="edge">
<title>Almacenamiento&#45;&gt;Abastecimiento</title>
<path fill="none" stroke="black" stroke-width="2" d="M365.87,-575.32C365.87,-557.35 365.87,-536.59 365.87,-518.59"/>
<text text-anchor="middle" x="400.37" y="-543.68" font-family="sans-serif" font-size="12.00">Partnership</text>
</g>
<!-- Recibimiento -->
<g id="node7" class="node">
<title>Recibimiento</title>
<polygon fill="none" stroke="black" stroke-width="2" points="33.31,-444.98 37.75,-442.78 42.39,-440.68 47.2,-438.68 52.17,-436.79 57.28,-435.01 62.51,-433.36 67.85,-431.85 73.27,-430.47 78.76,-429.23 84.29,-428.14 89.86,-427.21 95.44,-426.44 101.02,-425.82 106.59,-425.36 112.12,-425.07 117.6,-424.94 123.02,-424.98 128.37,-425.17 133.63,-425.53 138.79,-426.04 143.84,-426.71 148.77,-427.53 153.58,-428.49 158.24,-429.6 162.76,-430.84 167.13,-432.2 171.34,-433.69 175.38,-435.29 179.25,-437 182.94,-438.8 186.45,-440.7 189.78,-442.67 192.92,-444.73 195.87,-446.84 198.61,-449.01 201.17,-451.23 203.51,-453.49 205.66,-455.77 207.6,-458.08 209.32,-460.41 210.84,-462.74 212.14,-465.07 213.22,-467.39 214.09,-469.7 214.73,-471.99 215.15,-474.25 215.34,-476.48 215.3,-478.67 215.04,-480.81 214.54,-482.92 213.8,-484.97 212.83,-486.97 211.62,-488.91 210.17,-490.79 208.48,-492.61 206.56,-494.37 204.39,-496.06 201.98,-497.69 199.33,-499.24 196.45,-500.73 193.33,-502.15 189.98,-503.49 186.4,-504.77 182.6,-505.97 178.58,-507.11 174.35,-508.17 169.92,-509.15 165.29,-510.06 160.48,-510.9 155.49,-511.67 150.34,-512.35 145.04,-512.96 139.6,-513.5 134.03,-513.95 128.36,-514.33 122.6,-514.62 116.76,-514.83 110.86,-514.96 104.93,-515 98.97,-514.95 93.02,-514.82 87.08,-514.59 81.19,-514.27 75.35,-513.85 69.6,-513.34 63.95,-512.73 58.42,-512.02 53.04,-511.2 47.82,-510.29 42.78,-509.28 37.95,-508.16 33.34,-506.93 28.96,-505.61 24.85,-504.18 21.01,-502.65 17.45,-501.02 14.2,-499.3 11.26,-497.48 8.65,-495.56 6.37,-493.56 4.44,-491.48 2.86,-489.31 1.63,-487.07 0.77,-484.77 0.27,-482.4 0.13,-479.97 0.36,-477.5 0.94,-474.98 1.88,-472.44 3.18,-469.87 4.82,-467.29 6.79,-464.7 9.09,-462.11 11.71,-459.54 14.63,-457 17.84,-454.49 21.33,-452.02 25.09,-449.6 29.08,-447.25 33.31,-444.98"/>
<text text-anchor="middle" x="113.87" y="-469.65" font-family="sans-serif" font-size="16.00">Recibimiento</text>
</g>
<!-- Almacenamiento&#45;&gt;Recibimiento -->
<g id="edge5" class="edge">
<title>Almacenamiento&#45;&gt;Recibimiento</title>
<path fill="none" stroke="black" stroke-width="2" d="M294.67,-578.24C256.39,-556.26 209.73,-529.48 173.4,-508.62"/>
<text text-anchor="middle" x="282.37" y="-543.68" font-family="sans-serif" font-size="12.00">Partnership</text>
</g>
<!-- Empaquetado -->
<g id="node8" class="node">
<title>Empaquetado</title>
<polygon fill="none" stroke="black" stroke-width="2" points="716.71,-495.1 713.2,-497.61 709.45,-500.04 705.47,-502.39 701.27,-504.64 696.87,-506.79 692.28,-508.82 687.52,-510.73 682.6,-512.51 677.55,-514.16 672.38,-515.66 667.09,-517.02 661.72,-518.22 656.27,-519.27 650.76,-520.15 645.2,-520.88 639.62,-521.43 634.02,-521.83 628.41,-522.05 622.82,-522.12 617.25,-522.02 611.72,-521.76 606.24,-521.34 600.83,-520.77 595.48,-520.06 590.23,-519.19 585.06,-518.19 580,-517.06 575.06,-515.81 570.25,-514.43 565.56,-512.95 561.02,-511.36 556.63,-509.68 552.4,-507.91 548.34,-506.06 544.45,-504.14 540.74,-502.16 537.22,-500.13 533.9,-498.05 530.78,-495.93 527.87,-493.78 525.18,-491.6 522.7,-489.42 520.46,-487.22 518.45,-485.02 516.67,-482.82 515.14,-480.63 513.86,-478.45 512.83,-476.29 512.06,-474.16 511.55,-472.05 511.31,-469.98 511.34,-467.94 511.64,-465.93 512.22,-463.97 513.07,-462.04 514.21,-460.16 515.62,-458.33 517.31,-456.54 519.28,-454.8 521.53,-453.11 524.05,-451.48 526.85,-449.89 529.91,-448.35 533.24,-446.87 536.83,-445.44 540.67,-444.06 544.76,-442.74 549.08,-441.48 553.63,-440.28 558.4,-439.14 563.37,-438.06 568.54,-437.04 573.88,-436.08 579.39,-435.2 585.05,-434.38 590.85,-433.64 596.76,-432.98 602.77,-432.39 608.87,-431.88 615.03,-431.46 621.23,-431.12 627.45,-430.88 633.68,-430.73 639.9,-430.68 646.07,-430.73 652.19,-430.89 658.23,-431.15 664.17,-431.53 670,-432.02 675.68,-432.62 681.2,-433.34 686.55,-434.18 691.7,-435.14 696.63,-436.22 701.33,-437.42 705.79,-438.74 709.98,-440.18 713.89,-441.74 717.51,-443.41 720.83,-445.2 723.83,-447.1 726.52,-449.11 728.87,-451.21 730.88,-453.41 732.55,-455.71 733.87,-458.08 734.84,-460.53 735.46,-463.05 735.73,-465.62 735.65,-468.25 735.21,-470.92 734.44,-473.62 733.33,-476.34 731.88,-479.08 730.11,-481.81 728.02,-484.53 725.62,-487.24 722.93,-489.9 719.96,-492.53 716.71,-495.1"/>
<text text-anchor="middle" x="619.87" y="-469.65" font-family="sans-serif" font-size="16.00">Empaquetado</text>
</g>
<!-- Almacenamiento&#45;&gt;Empaquetado -->
<g id="edge7" class="edge">
<title>Almacenamiento&#45;&gt;Empaquetado</title>
<path fill="none" stroke="black" stroke-width="2" d="M430.95,-582.05C469.76,-559.95 518.77,-532.03 557.15,-510.17"/>
<text text-anchor="middle" x="535.37" y="-543.68" font-family="sans-serif" font-size="12.00">Partnership</text>
</g>
<!-- Empaquetado&#45;&gt;Inventario -->
<g id="edge8" class="edge">
<title>Empaquetado&#45;&gt;Inventario</title>
<path fill="none" stroke="black" stroke-width="2" d="M619.87,-430.93C619.87,-413.23 619.87,-392.58 619.87,-374.7"/>
<text text-anchor="middle" x="695.37" y="-397.01" font-family="sans-serif" font-size="12.00"> &#160;&#160;&#160;&#160;&#160;&#160;&#160;&#160;&#160;&#160;&#160;&#160;&#160;&#160;&#160;&#160;&#160;&#160;&#160;&#160;&#160;&#160;&#160;&#160;&#160;&#160;&#160;&#160;&#160;&#160;&#160;&#160;&#160;&#160;&#160;&#160;&#160;&#160;&#160;</text>
<polygon fill="white" stroke="transparent" points="612.87,-365.7 612.87,-382.7 626.87,-382.7 626.87,-365.7 612.87,-365.7"/>
<text text-anchor="start" x="614.87" y="-371.1" font-family="sans-serif" font-size="12.00">D</text>
<polygon fill="white" stroke="transparent" points="612.87,-421.93 612.87,-438.93 626.87,-438.93 626.87,-421.93 612.87,-421.93"/>
<text text-anchor="start" x="614.87" y="-427.33" font-family="sans-serif" font-size="12.00">U</text>
</g>
<!-- DistribuirAlimentos -->
<g id="node9" class="node">
<title>DistribuirAlimentos</title>
<polygon fill="none" stroke="black" stroke-width="2" points="1045.44,-656.12 1038.01,-657.83 1030.4,-659.42 1022.64,-660.9 1014.76,-662.25 1006.79,-663.48 998.76,-664.57 990.7,-665.52 982.64,-666.33 974.61,-666.98 966.63,-667.49 958.73,-667.85 950.93,-668.04 943.26,-668.09 935.74,-667.97 928.39,-667.7 921.22,-667.28 914.26,-666.7 907.53,-665.97 901.03,-665.09 894.78,-664.07 888.8,-662.9 883.08,-661.61 877.64,-660.18 872.49,-658.63 867.64,-656.96 863.08,-655.18 858.82,-653.3 854.86,-651.33 851.21,-649.26 847.86,-647.12 844.81,-644.91 842.07,-642.64 839.62,-640.31 837.48,-637.94 835.63,-635.54 834.07,-633.11 832.81,-630.66 831.83,-628.2 831.14,-625.74 830.73,-623.29 830.59,-620.85 830.73,-618.44 831.15,-616.05 831.84,-613.71 832.79,-611.4 834.02,-609.14 835.51,-606.94 837.26,-604.8 839.29,-602.72 841.57,-600.71 844.12,-598.77 846.93,-596.91 850,-595.13 853.34,-593.43 856.93,-591.81 860.79,-590.29 864.9,-588.85 869.27,-587.5 873.9,-586.24 878.77,-585.07 883.9,-583.99 889.27,-583.01 894.87,-582.12 900.71,-581.32 906.77,-580.62 913.04,-580 919.52,-579.48 926.19,-579.06 933.05,-578.72 940.07,-578.47 947.24,-578.32 954.55,-578.25 961.97,-578.27 969.5,-578.39 977.1,-578.59 984.75,-578.88 992.44,-579.26 1000.13,-579.73 1007.81,-580.29 1015.44,-580.94 1023.01,-581.67 1030.48,-582.49 1037.82,-583.4 1045.01,-584.39 1052.03,-585.47 1058.83,-586.64 1065.4,-587.89 1071.7,-589.23 1077.71,-590.65 1083.41,-592.15 1088.76,-593.74 1093.75,-595.4 1098.35,-597.14 1102.53,-598.95 1106.29,-600.83 1109.6,-602.79 1112.44,-604.81 1114.81,-606.89 1116.68,-609.02 1118.05,-611.21 1118.92,-613.45 1119.26,-615.73 1119.09,-618.05 1118.41,-620.4 1117.2,-622.77 1115.49,-625.17 1113.27,-627.57 1110.55,-629.97 1107.35,-632.37 1103.68,-634.76 1099.56,-637.13 1094.99,-639.46 1090.01,-641.76 1084.63,-644.02 1078.88,-646.22 1072.79,-648.36 1066.36,-650.43 1059.65,-652.42 1052.66,-654.32 1045.44,-656.12"/>
<text text-anchor="middle" x="963.87" y="-616.32" font-family="sans-serif" font-size="16.00">DistribuirAlimentos</text>
</g>
<!-- DistribuirAlimentos&#45;&gt;Empaquetado -->
<g id="edge10" class="edge">
<title>DistribuirAlimentos&#45;&gt;Empaquetado</title>
<path fill="none" stroke="black" stroke-width="2" d="M953.12,-577.91C947.35,-563.77 938.69,-549.25 925.87,-540.28 892.75,-517.11 784.2,-531.59 744.87,-522.28 728.82,-518.48 712.05,-513.11 696.21,-507.33"/>
<text text-anchor="middle" x="1014.37" y="-543.68" font-family="sans-serif" font-size="12.00"> &#160;&#160;&#160;&#160;&#160;&#160;&#160;&#160;&#160;&#160;&#160;&#160;&#160;&#160;&#160;&#160;&#160;&#160;&#160;&#160;&#160;&#160;&#160;&#160;&#160;&#160;&#160;&#160;&#160;&#160;&#160;&#160;&#160;&#160;&#160;&#160;&#160;&#160;&#160;</text>
<polygon fill="white" stroke="transparent" points="689.21,-498.33 689.21,-515.33 703.21,-515.33 703.21,-498.33 689.21,-498.33"/>
<text text-anchor="start" x="691.21" y="-503.73" font-family="sans-serif" font-size="12.00">D</text>
<polygon fill="white" stroke="transparent" points="946.12,-568.91 946.12,-585.91 960.12,-585.91 960.12,-568.91 946.12,-568.91"/>
<text text-anchor="start" x="948.12" y="-574.31" font-family="sans-serif" font-size="12.00">U</text>
</g>
<!-- EntregaPedidos -->
<g id="node10" class="node">
<title>EntregaPedidos</title>
<polygon fill="none" stroke="black" stroke-width="2" points="860.26,-430.56 867.87,-429.91 875.51,-429.37 883.14,-428.97 890.73,-428.69 898.25,-428.54 905.68,-428.51 912.98,-428.63 920.14,-428.87 927.11,-429.24 933.89,-429.75 940.44,-430.39 946.74,-431.15 952.78,-432.05 958.54,-433.07 964,-434.21 969.15,-435.47 973.97,-436.85 978.46,-438.33 982.61,-439.93 986.41,-441.63 989.86,-443.42 992.95,-445.3 995.68,-447.27 998.07,-449.32 1000.09,-451.43 1001.77,-453.62 1003.11,-455.86 1004.11,-458.15 1004.78,-460.48 1005.13,-462.85 1005.17,-465.24 1004.91,-467.65 1004.36,-470.08 1003.52,-472.51 1002.42,-474.93 1001.06,-477.35 999.46,-479.74 997.62,-482.11 995.56,-484.45 993.28,-486.74 990.81,-488.99 988.14,-491.18 985.29,-493.31 982.26,-495.38 979.07,-497.37 975.72,-499.29 972.23,-501.13 968.58,-502.87 964.8,-504.53 960.89,-506.09 956.84,-507.56 952.68,-508.92 948.39,-510.17 943.98,-511.32 939.46,-512.36 934.83,-513.29 930.09,-514.11 925.25,-514.81 920.3,-515.4 915.25,-515.88 910.11,-516.24 904.87,-516.49 899.55,-516.62 894.14,-516.64 888.66,-516.55 883.11,-516.34 877.49,-516.03 871.82,-515.61 866.11,-515.09 860.36,-514.46 854.59,-513.73 848.81,-512.9 843.03,-511.97 837.28,-510.95 831.55,-509.84 825.88,-508.65 820.28,-507.36 814.76,-506 809.35,-504.55 804.07,-503.03 798.93,-501.44 793.96,-499.78 789.19,-498.06 784.62,-496.27 780.29,-494.43 776.2,-492.53 772.4,-490.59 768.89,-488.59 765.69,-486.56 762.83,-484.49 760.33,-482.39 758.19,-480.27 756.44,-478.12 755.09,-475.95 754.15,-473.76 753.63,-471.57 753.55,-469.38 753.9,-467.19 754.7,-465 755.95,-462.83 757.65,-460.68 759.79,-458.55 762.38,-456.45 765.4,-454.38 768.86,-452.36 772.73,-450.38 777.01,-448.45 781.67,-446.58 786.72,-444.77 792.11,-443.03 797.85,-441.37 803.89,-439.78 810.22,-438.28 816.81,-436.87 823.64,-435.56 830.67,-434.34 837.88,-433.23 845.23,-432.23 852.7,-431.34 860.26,-430.56"/>
<text text-anchor="middle" x="885.87" y="-469.65" font-family="sans-serif" font-size="16.00">EntregaPedidos</text>
</g>
<!-- DistribuirAlimentos&#45;&gt;EntregaPedidos -->
<g id="edge9" class="edge">
<title>DistribuirAlimentos&#45;&gt;EntregaPedidos</title>
<path fill="none" stroke="black" stroke-width="2" d="M1075.08,-589.92C1100.2,-577.71 1115.44,-561.36 1099.87,-540.28 1075.97,-507.92 1036.41,-490.96 997.77,-482.25"/>
<text text-anchor="middle" x="1180.37" y="-543.68" font-family="sans-serif" font-size="12.00"> &#160;&#160;&#160;&#160;&#160;&#160;&#160;&#160;&#160;&#160;&#160;&#160;&#160;&#160;&#160;&#160;&#160;&#160;&#160;&#160;&#160;&#160;&#160;&#160;&#160;&#160;&#160;&#160;&#160;&#160;&#160;&#160;&#160;&#160;&#160;&#160;&#160;&#160;&#160;</text>
<polygon fill="white" stroke="transparent" points="990.77,-473.25 990.77,-490.25 1004.77,-490.25 1004.77,-473.25 990.77,-473.25"/>
<text text-anchor="start" x="992.77" y="-478.65" font-family="sans-serif" font-size="12.00">D</text>
<polygon fill="white" stroke="transparent" points="1068.08,-580.92 1068.08,-597.92 1082.08,-597.92 1082.08,-580.92 1068.08,-580.92"/>
<text text-anchor="start" x="1070.08" y="-586.32" font-family="sans-serif" font-size="12.00">U</text>
</g>
<!-- EntregaPedidos&#45;&gt;RastreoOrdenes -->
<g id="edge11" class="edge">
<title>EntregaPedidos&#45;&gt;RastreoOrdenes</title>
<path fill="none" stroke="black" stroke-width="2" d="M884.11,-428.81C880.91,-349.1 874.13,-180.54 870.8,-97.76"/>
<text text-anchor="middle" x="911.37" y="-257.84" font-family="sans-serif" font-size="12.00">Partnership</text>
</g>
<!-- DistribuirBienes -->
<g id="node11" class="node">
<title>DistribuirBienes</title>
<polygon fill="none" stroke="black" stroke-width="2" points="543.55,-633.91 540.91,-631.21 538.62,-628.48 536.67,-625.75 535.08,-623.02 533.85,-620.29 533,-617.59 532.52,-614.92 532.43,-612.3 532.73,-609.72 533.41,-607.2 534.47,-604.75 535.93,-602.38 537.76,-600.09 539.98,-597.88 542.57,-595.78 545.52,-593.77 548.82,-591.88 552.47,-590.09 556.46,-588.41 560.76,-586.85 565.37,-585.41 570.27,-584.09 575.44,-582.89 580.87,-581.81 586.53,-580.85 592.41,-580.01 598.48,-579.29 604.73,-578.69 611.14,-578.2 617.67,-577.83 624.32,-577.56 631.05,-577.41 637.84,-577.35 644.68,-577.4 651.53,-577.55 658.38,-577.8 665.2,-578.13 671.97,-578.55 678.67,-579.06 685.29,-579.65 691.79,-580.31 698.17,-581.06 704.39,-581.87 710.45,-582.76 716.33,-583.71 722.01,-584.73 727.48,-585.81 732.72,-586.95 737.73,-588.16 742.48,-589.42 746.98,-590.74 751.2,-592.11 755.15,-593.54 758.82,-595.02 762.19,-596.56 765.26,-598.15 768.04,-599.79 770.51,-601.48 772.68,-603.22 774.54,-605 776.09,-606.84 777.34,-608.72 778.28,-610.64 778.91,-612.6 779.24,-614.61 779.27,-616.65 779.01,-618.73 778.45,-620.83 777.61,-622.97 776.47,-625.12 775.07,-627.3 773.38,-629.49 771.43,-631.69 769.22,-633.89 766.74,-636.09 764.02,-638.28 761.06,-640.45 757.86,-642.6 754.43,-644.72 750.77,-646.8 746.9,-648.83 742.83,-650.81 738.55,-652.73 734.08,-654.58 729.43,-656.35 724.6,-658.03 719.6,-659.62 714.45,-661.1 709.15,-662.48 703.72,-663.73 698.16,-664.87 692.48,-665.87 686.69,-666.73 680.81,-667.45 674.86,-668.01 668.83,-668.43 662.75,-668.69 656.62,-668.79 650.47,-668.73 644.31,-668.5 638.15,-668.11 632,-667.55 625.89,-666.83 619.83,-665.94 613.84,-664.89 607.93,-663.69 602.12,-662.34 596.42,-660.83 590.87,-659.19 585.46,-657.4 580.23,-655.49 575.18,-653.46 570.34,-651.31 565.72,-649.06 561.34,-646.71 557.21,-644.28 553.35,-641.77 549.78,-639.2 546.51,-636.58 543.55,-633.91"/>
<text text-anchor="middle" x="659.87" y="-616.32" font-family="sans-serif" font-size="16.00">DistribuirBienes</text>
</g>
<!-- DistribuirBienes&#45;&gt;Empaquetado -->
<g id="edge13" class="edge">
<title>DistribuirBienes&#45;&gt;Empaquetado</title>
<path fill="none" stroke="black" stroke-width="2" d="M615.15,-577.94C609.32,-570.34 604.21,-562.03 600.87,-553.28 596.95,-543.02 597.18,-531.7 599.4,-520.91"/>
<text text-anchor="middle" x="676.37" y="-543.68" font-family="sans-serif" font-size="12.00"> &#160;&#160;&#160;&#160;&#160;&#160;&#160;&#160;&#160;&#160;&#160;&#160;&#160;&#160;&#160;&#160;&#160;&#160;&#160;&#160;&#160;&#160;&#160;&#160;&#160;&#160;&#160;&#160;&#160;&#160;&#160;&#160;&#160;&#160;&#160;&#160;&#160;&#160;&#160;</text>
<polygon fill="white" stroke="transparent" points="592.4,-511.91 592.4,-528.91 606.4,-528.91 606.4,-511.91 592.4,-511.91"/>
<text text-anchor="start" x="594.4" y="-517.31" font-family="sans-serif" font-size="12.00">D</text>
<polygon fill="white" stroke="transparent" points="608.15,-568.94 608.15,-585.94 622.15,-585.94 622.15,-568.94 608.15,-568.94"/>
<text text-anchor="start" x="610.15" y="-574.34" font-family="sans-serif" font-size="12.00">U</text>
</g>
<!-- DistribuirBienes&#45;&gt;EntregaPedidos -->
<g id="edge12" class="edge">
<title>DistribuirBienes&#45;&gt;EntregaPedidos</title>
<path fill="none" stroke="black" stroke-width="2" d="M711.2,-582.87C730.91,-569.23 753.75,-553.76 774.87,-540.28 791.39,-529.73 809.59,-518.7 826.39,-508.76"/>
<text text-anchor="middle" x="850.37" y="-543.68" font-family="sans-serif" font-size="12.00"> &#160;&#160;&#160;&#160;&#160;&#160;&#160;&#160;&#160;&#160;&#160;&#160;&#160;&#160;&#160;&#160;&#160;&#160;&#160;&#160;&#160;&#160;&#160;&#160;&#160;&#160;&#160;&#160;&#160;&#160;&#160;&#160;&#160;&#160;&#160;&#160;&#160;&#160;&#160;</text>
<polygon fill="white" stroke="transparent" points="819.39,-499.76 819.39,-516.76 833.39,-516.76 833.39,-499.76 819.39,-499.76"/>
<text text-anchor="start" x="821.39" y="-505.16" font-family="sans-serif" font-size="12.00">D</text>
<polygon fill="white" stroke="transparent" points="704.2,-573.87 704.2,-590.87 718.2,-590.87 718.2,-573.87 704.2,-573.87"/>
<text text-anchor="start" x="706.2" y="-579.27" font-family="sans-serif" font-size="12.00">U</text>
</g>
<!-- Retornos -->
<g id="node12" class="node">
<title>Retornos</title>
<polygon fill="none" stroke="black" stroke-width="2" points="381.81,-370.53 376.92,-369.37 372.16,-368.11 367.55,-366.75 363.1,-365.29 358.83,-363.75 354.75,-362.12 350.9,-360.41 347.27,-358.64 343.88,-356.79 340.76,-354.89 337.9,-352.93 335.32,-350.92 333.03,-348.86 331.04,-346.77 329.34,-344.65 327.94,-342.5 326.86,-340.33 326.07,-338.14 325.6,-335.95 325.43,-333.75 325.56,-331.55 325.98,-329.36 326.69,-327.18 327.69,-325.01 328.95,-322.87 330.48,-320.75 332.26,-318.66 334.28,-316.6 336.52,-314.59 338.98,-312.61 341.64,-310.69 344.49,-308.81 347.51,-306.99 350.68,-305.23 354,-303.53 357.44,-301.9 361,-300.34 364.66,-298.85 368.4,-297.44 372.2,-296.1 376.07,-294.85 379.98,-293.69 383.92,-292.61 387.89,-291.62 391.86,-290.73 395.83,-289.94 399.79,-289.24 403.74,-288.65 407.65,-288.16 411.53,-287.78 415.38,-287.5 419.17,-287.33 422.92,-287.27 426.61,-287.33 430.24,-287.5 433.8,-287.78 437.3,-288.17 440.73,-288.68 444.09,-289.3 447.37,-290.04 450.58,-290.89 453.71,-291.85 456.76,-292.92 459.73,-294.1 462.62,-295.39 465.42,-296.78 468.13,-298.28 470.75,-299.87 473.28,-301.55 475.71,-303.33 478.03,-305.19 480.26,-307.13 482.37,-309.15 484.37,-311.24 486.24,-313.4 487.99,-315.62 489.61,-317.88 491.09,-320.2 492.42,-322.55 493.6,-324.94 494.61,-327.35 495.46,-329.78 496.14,-332.22 496.63,-334.66 496.93,-337.09 497.03,-339.52 496.92,-341.92 496.61,-344.29 496.07,-346.62 495.32,-348.91 494.33,-351.15 493.11,-353.32 491.66,-355.43 489.97,-357.47 488.04,-359.43 485.86,-361.29 483.45,-363.07 480.81,-364.75 477.92,-366.32 474.81,-367.78 471.47,-369.13 467.92,-370.36 464.16,-371.47 460.19,-372.46 456.04,-373.31 451.71,-374.04 447.22,-374.64 442.58,-375.1 437.81,-375.43 432.92,-375.63 427.93,-375.7 422.86,-375.63 417.73,-375.43 412.56,-375.1 407.37,-374.64 402.17,-374.06 397,-373.35 391.87,-372.53 386.8,-371.58 381.81,-370.53"/>
<text text-anchor="middle" x="415.87" y="-326.72" font-family="sans-serif" font-size="16.00">Retornos</text>
</g>
<!-- Retornos&#45;&gt;ManejoOrdenes -->
<g id="edge14" class="edge">
<title>Retornos&#45;&gt;ManejoOrdenes</title>
<path fill="none" stroke="black" stroke-width="2" d="M464.99,-296.55C494.58,-276.68 532.38,-251.31 563.23,-230.6"/>
<text text-anchor="middle" x="559.37" y="-257.84" font-family="sans-serif" font-size="12.00">Partnership</text>
</g>
</g>
</svg>
