<svg width="2000px" height="1775px"
 viewBox="0.00 0.00 1084.47 962.47" xmlns="http://www.w3.org/2000/svg" xmlns:xlink="http://www.w3.org/1999/xlink">
<g id="graph0" class="graph" transform="scale(1.0 1.0) rotate(0) translate(4 958.47)">
<title>ContextMapGraph</title>
<polygon fill="white" stroke="transparent" points="-4,4 -4,-958.47 1080.47,-958.47 1080.47,4 -4,4"/>
<!-- Abastecimiento -->
<g id="node1" class="node">
<title>Abastecimiento</title>
<polygon fill="none" stroke="black" stroke-width="2" points="713.73,-440.97 720.42,-442.49 726.89,-444.09 733.11,-445.79 739.06,-447.56 744.71,-449.41 750.04,-451.33 755.02,-453.3 759.64,-455.33 763.88,-457.41 767.72,-459.53 771.15,-461.69 774.15,-463.87 776.71,-466.07 778.83,-468.29 780.5,-470.52 781.72,-472.75 782.48,-474.98 782.79,-477.2 782.65,-479.41 782.06,-481.6 781.04,-483.77 779.58,-485.9 777.71,-488.01 775.44,-490.08 772.77,-492.11 769.73,-494.09 766.34,-496.02 762.6,-497.91 758.55,-499.73 754.21,-501.5 749.59,-503.21 744.72,-504.85 739.62,-506.43 734.31,-507.93 728.82,-509.36 723.16,-510.72 717.37,-512 711.47,-513.2 705.47,-514.32 699.4,-515.35 693.27,-516.3 687.12,-517.16 680.95,-517.93 674.79,-518.61 668.64,-519.19 662.54,-519.68 656.49,-520.07 650.5,-520.37 644.6,-520.56 638.78,-520.65 633.06,-520.63 627.45,-520.51 621.96,-520.29 616.59,-519.96 611.36,-519.52 606.26,-518.98 601.3,-518.32 596.48,-517.56 591.81,-516.69 587.3,-515.72 582.93,-514.64 578.73,-513.45 574.68,-512.16 570.79,-510.77 567.07,-509.28 563.51,-507.69 560.12,-506.01 556.89,-504.24 553.85,-502.38 550.97,-500.44 548.28,-498.43 545.78,-496.34 543.46,-494.18 541.34,-491.96 539.42,-489.69 537.71,-487.36 536.21,-485 534.93,-482.6 533.89,-480.17 533.07,-477.72 532.51,-475.25 532.19,-472.79 532.14,-470.32 532.35,-467.87 532.84,-465.44 533.62,-463.03 534.69,-460.66 536.05,-458.34 537.72,-456.07 539.7,-453.86 541.99,-451.72 544.6,-449.66 547.52,-447.68 550.77,-445.79 554.34,-444 558.22,-442.31 562.42,-440.74 566.92,-439.28 571.73,-437.94 576.84,-436.72 582.23,-435.64 587.89,-434.69 593.81,-433.87 599.97,-433.19 606.36,-432.65 612.96,-432.26 619.74,-432 626.7,-431.89 633.8,-431.92 641.01,-432.09 648.32,-432.4 655.7,-432.85 663.12,-433.43 670.55,-434.15 677.96,-434.99 685.32,-435.96 692.61,-437.04 699.79,-438.24 706.84,-439.55 713.73,-440.97"/>
<text text-anchor="middle" x="648.73" y="-474.21" font-family="sans-serif" font-size="16.00">Abastecimiento</text>
</g>
<!-- AbastecimientoPorTerceros -->
<g id="node2" class="node">
<title>AbastecimientoPorTerceros</title>
<polygon fill="none" stroke="black" stroke-width="2" points="727.76,-374 716.23,-374.85 704.63,-375.57 693,-376.18 681.39,-376.65 669.85,-376.99 658.41,-377.2 647.13,-377.28 636.05,-377.22 625.19,-377.03 614.61,-376.69 604.34,-376.23 594.4,-375.62 584.84,-374.89 575.67,-374.02 566.93,-373.02 558.63,-371.89 550.8,-370.64 543.45,-369.27 536.59,-367.79 530.24,-366.2 524.4,-364.5 519.09,-362.7 514.3,-360.81 510.03,-358.83 506.28,-356.77 503.05,-354.63 500.34,-352.44 498.13,-350.18 496.41,-347.87 495.17,-345.52 494.41,-343.13 494.11,-340.72 494.25,-338.29 494.82,-335.84 495.8,-333.4 497.19,-330.95 498.95,-328.53 501.09,-326.12 503.58,-323.74 506.41,-321.39 509.56,-319.09 513.03,-316.83 516.8,-314.63 520.85,-312.5 525.17,-310.43 529.77,-308.43 534.61,-306.51 539.71,-304.68 545.05,-302.93 550.62,-301.27 556.41,-299.71 562.43,-298.24 568.67,-296.88 575.11,-295.62 581.77,-294.47 588.63,-293.42 595.69,-292.49 602.94,-291.66 610.39,-290.95 618.03,-290.35 625.84,-289.85 633.83,-289.47 641.99,-289.21 650.31,-289.05 658.78,-289 667.39,-289.06 676.13,-289.23 684.99,-289.5 693.94,-289.88 702.98,-290.36 712.08,-290.94 721.22,-291.62 730.39,-292.39 739.56,-293.26 748.7,-294.22 757.78,-295.27 766.79,-296.41 775.69,-297.63 784.44,-298.93 793.02,-300.31 801.4,-301.77 809.54,-303.29 817.4,-304.89 824.96,-306.55 832.18,-308.28 839.02,-310.07 845.45,-311.91 851.44,-313.81 856.96,-315.75 861.97,-317.74 866.44,-319.77 870.36,-321.83 873.69,-323.93 876.41,-326.06 878.5,-328.21 879.94,-330.38 880.71,-332.57 880.81,-334.76 880.21,-336.96 878.93,-339.16 876.95,-341.35 874.27,-343.53 870.91,-345.69 866.85,-347.83 862.13,-349.94 856.75,-352.01 850.73,-354.04 844.08,-356.02 836.85,-357.95 829.05,-359.83 820.71,-361.63 811.87,-363.37 802.56,-365.02 792.82,-366.6 782.7,-368.08 772.23,-369.48 761.45,-370.77 750.42,-371.96 739.17,-373.03 727.76,-374"/>
<text text-anchor="middle" x="675.73" y="-328.1" font-family="sans-serif" font-size="16.00">AbastecimientoPorTerceros</text>
</g>
<!-- Abastecimiento&#45;&gt;AbastecimientoPorTerceros -->
<g id="edge1" class="edge">
<title>Abastecimiento&#45;&gt;AbastecimientoPorTerceros</title>
<path fill="none" stroke="black" stroke-width="2" d="M657.05,-432.6C660.34,-415.07 664.11,-394.96 667.39,-377.42"/>
<text text-anchor="middle" x="739.23" y="-401.65" font-family="sans-serif" font-size="12.00"> &#160;&#160;&#160;&#160;&#160;&#160;&#160;&#160;&#160;&#160;&#160;&#160;&#160;&#160;&#160;&#160;&#160;&#160;&#160;&#160;&#160;&#160;&#160;&#160;&#160;&#160;&#160;&#160;&#160;&#160;&#160;&#160;&#160;&#160;&#160;&#160;&#160;&#160;&#160;</text>
<polygon fill="white" stroke="transparent" points="644.39,-367.42 644.39,-386.42 660.39,-386.42 660.39,-367.42 644.39,-367.42"/>
<polyline fill="none" stroke="black" points="660.39,-367.42 660.39,-386.42 "/>
<text text-anchor="start" x="647.39" y="-373.82" font-family="sans-serif" font-size="12.00">D</text>
<polygon fill="white" stroke="transparent" points="660.39,-367.42 660.39,-386.42 690.39,-386.42 690.39,-367.42 660.39,-367.42"/>
<polygon fill="none" stroke="black" points="660.39,-367.42 660.39,-386.42 690.39,-386.42 690.39,-367.42 660.39,-367.42"/>
<text text-anchor="start" x="663.39" y="-373.82" font-family="sans-serif" font-size="12.00">ACL</text>
<polygon fill="white" stroke="transparent" points="650.05,-423.6 650.05,-440.6 664.05,-440.6 664.05,-423.6 650.05,-423.6"/>
<text text-anchor="start" x="652.05" y="-429" font-family="sans-serif" font-size="12.00">U</text>
</g>
<!-- Inventario -->
<g id="node3" class="node">
<title>Inventario</title>
<polygon fill="none" stroke="black" stroke-width="2" points="336.24,-374.8 330.54,-374.21 324.94,-373.51 319.44,-372.7 314.08,-371.77 308.88,-370.74 303.85,-369.61 299.02,-368.37 294.4,-367.04 290.02,-365.62 285.89,-364.11 282.02,-362.51 278.42,-360.84 275.11,-359.09 272.1,-357.27 269.4,-355.38 267.01,-353.44 264.94,-351.44 263.19,-349.39 261.76,-347.3 260.65,-345.17 259.86,-343.01 259.39,-340.82 259.23,-338.61 259.38,-336.38 259.83,-334.14 260.56,-331.9 261.58,-329.66 262.87,-327.43 264.42,-325.21 266.21,-323 268.24,-320.83 270.48,-318.68 272.94,-316.56 275.58,-314.48 278.4,-312.45 281.39,-310.47 284.53,-308.55 287.8,-306.68 291.19,-304.89 294.69,-303.16 298.29,-301.5 301.97,-299.93 305.72,-298.43 309.53,-297.03 313.39,-295.71 317.29,-294.49 321.22,-293.37 325.18,-292.35 329.15,-291.43 333.13,-290.62 337.11,-289.92 341.09,-289.33 345.06,-288.86 349.01,-288.5 352.95,-288.26 356.87,-288.13 360.77,-288.13 364.64,-288.24 368.48,-288.47 372.3,-288.82 376.07,-289.3 379.82,-289.88 383.52,-290.59 387.18,-291.41 390.8,-292.35 394.37,-293.39 397.89,-294.55 401.36,-295.81 404.76,-297.17 408.1,-298.63 411.36,-300.19 414.55,-301.84 417.65,-303.58 420.66,-305.4 423.57,-307.3 426.37,-309.26 429.05,-311.3 431.6,-313.4 434.01,-315.55 436.27,-317.75 438.36,-319.99 440.29,-322.27 442.04,-324.57 443.58,-326.9 444.93,-329.25 446.05,-331.6 446.95,-333.96 447.61,-336.31 448.03,-338.65 448.18,-340.97 448.07,-343.27 447.69,-345.53 447.03,-347.76 446.08,-349.94 444.84,-352.06 443.31,-354.13 441.49,-356.13 439.37,-358.07 436.96,-359.93 434.25,-361.7 431.26,-363.4 427.99,-365 424.44,-366.5 420.63,-367.91 416.57,-369.21 412.26,-370.41 407.72,-371.49 402.97,-372.46 398.02,-373.32 392.89,-374.06 387.6,-374.68 382.16,-375.18 376.61,-375.56 370.95,-375.82 365.22,-375.95 359.44,-375.96 353.62,-375.85 347.8,-375.62 342,-375.27 336.24,-374.8"/>
<text text-anchor="middle" x="355.73" y="-328.1" font-family="sans-serif" font-size="16.00">Inventario</text>
</g>
<!-- Abastecimiento&#45;&gt;Inventario -->
<g id="edge2" class="edge">
<title>Abastecimiento&#45;&gt;Inventario</title>
<path fill="none" stroke="black" stroke-width="2" d="M589.74,-434.24C570.08,-421.36 547.59,-408.06 525.73,-398.25 498.77,-386.15 489.52,-390.3 461.73,-380.25 449.98,-376 437.7,-371.03 425.85,-365.94"/>
<text text-anchor="middle" x="585.23" y="-401.65" font-family="sans-serif" font-size="12.00">Partnership</text>
</g>
<!-- ManejoOrdenes -->
<g id="node4" class="node">
<title>ManejoOrdenes</title>
<polygon fill="none" stroke="black" stroke-width="2" points="333.51,-233.73 325.77,-233.24 318.13,-232.64 310.63,-231.92 303.31,-231.09 296.19,-230.15 289.29,-229.11 282.65,-227.96 276.29,-226.71 270.24,-225.37 264.51,-223.93 259.13,-222.41 254.12,-220.8 249.49,-219.11 245.25,-217.35 241.42,-215.52 238.01,-213.62 235.02,-211.66 232.46,-209.65 230.33,-207.59 228.63,-205.48 227.36,-203.34 226.51,-201.17 226.09,-198.96 226.08,-196.74 226.47,-194.5 227.25,-192.25 228.41,-190 229.94,-187.75 231.81,-185.51 234.02,-183.28 236.55,-181.07 239.38,-178.89 242.49,-176.74 245.86,-174.62 249.48,-172.55 253.32,-170.52 257.37,-168.55 261.61,-166.63 266.02,-164.78 270.58,-162.99 275.27,-161.28 280.09,-159.65 285.01,-158.09 290.02,-156.63 295.11,-155.25 300.26,-153.96 305.46,-152.78 310.71,-151.69 315.98,-150.71 321.27,-149.83 326.58,-149.06 331.89,-148.41 337.21,-147.87 342.51,-147.44 347.81,-147.13 353.09,-146.94 358.35,-146.87 363.59,-146.91 368.8,-147.08 373.98,-147.37 379.13,-147.77 384.24,-148.29 389.3,-148.93 394.33,-149.69 399.3,-150.56 404.22,-151.54 409.09,-152.63 413.88,-153.83 418.61,-155.13 423.25,-156.54 427.81,-158.03 432.27,-159.62 436.62,-161.3 440.86,-163.07 444.97,-164.91 448.93,-166.82 452.74,-168.81 456.39,-170.85 459.85,-172.96 463.11,-175.11 466.15,-177.31 468.97,-179.55 471.55,-181.82 473.86,-184.12 475.9,-186.43 477.64,-188.76 479.08,-191.1 480.2,-193.43 480.98,-195.76 481.41,-198.07 481.48,-200.36 481.18,-202.63 480.5,-204.86 479.43,-207.05 477.96,-209.19 476.1,-211.28 473.82,-213.31 471.15,-215.27 468.07,-217.17 464.59,-218.99 460.71,-220.73 456.45,-222.38 451.8,-223.94 446.79,-225.41 441.43,-226.78 435.72,-228.04 429.7,-229.2 423.38,-230.26 416.78,-231.2 409.92,-232.02 402.84,-232.73 395.55,-233.33 388.08,-233.8 380.47,-234.15 372.75,-234.38 364.94,-234.49 357.08,-234.48 349.2,-234.35 341.34,-234.1 333.51,-233.73"/>
<text text-anchor="middle" x="355.73" y="-186.81" font-family="sans-serif" font-size="16.00">ManejoOrdenes</text>
</g>
<!-- Inventario&#45;&gt;ManejoOrdenes -->
<g id="edge3" class="edge">
<title>Inventario&#45;&gt;ManejoOrdenes</title>
<path fill="none" stroke="black" stroke-width="2" d="M355.73,-287.97C355.73,-271.03 355.73,-251.59 355.73,-234.64"/>
<text text-anchor="middle" x="411.73" y="-255.95" font-family="sans-serif" font-size="12.00">Customer/Supplier</text>
<polygon fill="white" stroke="transparent" points="348.73,-225.64 348.73,-242.64 362.73,-242.64 362.73,-225.64 348.73,-225.64"/>
<text text-anchor="start" x="350.73" y="-231.04" font-family="sans-serif" font-size="12.00">D</text>
<polygon fill="white" stroke="transparent" points="348.73,-278.97 348.73,-295.97 362.73,-295.97 362.73,-278.97 348.73,-278.97"/>
<text text-anchor="start" x="350.73" y="-284.37" font-family="sans-serif" font-size="12.00">U</text>
</g>
<!-- Soporte -->
<g id="node5" class="node">
<title>Soporte</title>
<polygon fill="none" stroke="black" stroke-width="2" points="416.56,-22.3 419.65,-24.55 422.55,-26.85 425.26,-29.21 427.75,-31.6 430.03,-34.03 432.07,-36.48 433.86,-38.95 435.41,-41.42 436.71,-43.89 437.74,-46.34 438.5,-48.78 438.99,-51.19 439.21,-53.57 439.16,-55.9 438.83,-58.19 438.23,-60.43 437.36,-62.61 436.22,-64.72 434.82,-66.76 433.17,-68.74 431.27,-70.63 429.13,-72.45 426.76,-74.18 424.17,-75.83 421.37,-77.4 418.38,-78.87 415.2,-80.26 411.85,-81.55 408.35,-82.76 404.7,-83.87 400.93,-84.89 397.05,-85.82 393.07,-86.66 389,-87.41 384.87,-88.06 380.69,-88.63 376.48,-89.11 372.24,-89.49 367.99,-89.79 363.75,-90.01 359.53,-90.13 355.35,-90.17 351.21,-90.12 347.13,-89.99 343.12,-89.78 339.18,-89.47 335.34,-89.09 331.59,-88.62 327.95,-88.06 324.43,-87.42 321.03,-86.7 317.75,-85.89 314.6,-85 311.6,-84.03 308.73,-82.97 306.01,-81.83 303.44,-80.6 301.02,-79.29 298.75,-77.9 296.64,-76.43 294.68,-74.88 292.87,-73.25 291.22,-71.54 289.73,-69.76 288.4,-67.91 287.22,-65.98 286.19,-63.99 285.32,-61.94 284.61,-59.82 284.05,-57.65 283.64,-55.44 283.39,-53.17 283.29,-50.87 283.35,-48.53 283.55,-46.17 283.91,-43.79 284.43,-41.39 285.09,-38.99 285.91,-36.59 286.89,-34.2 288.01,-31.83 289.29,-29.49 290.73,-27.18 292.31,-24.91 294.06,-22.7 295.95,-20.55 297.99,-18.47 300.19,-16.47 302.54,-14.56 305.03,-12.74 307.67,-11.03 310.45,-9.42 313.38,-7.94 316.44,-6.58 319.63,-5.35 322.95,-4.25 326.4,-3.3 329.96,-2.5 333.62,-1.84 337.39,-1.34 341.25,-1 345.2,-0.81 349.22,-0.78 353.3,-0.91 357.43,-1.2 361.6,-1.65 365.81,-2.26 370.02,-3.02 374.24,-3.93 378.44,-4.98 382.62,-6.18 386.76,-7.51 390.84,-8.98 394.85,-10.57 398.77,-12.27 402.59,-14.09 406.29,-16.01 409.86,-18.02 413.29,-20.12 416.56,-22.3"/>
<text text-anchor="middle" x="355.73" y="-45.04" font-family="sans-serif" font-size="16.00">Soporte</text>
</g>
<!-- ManejoOrdenes&#45;&gt;Soporte -->
<g id="edge4" class="edge">
<title>ManejoOrdenes&#45;&gt;Soporte</title>
<path fill="none" stroke="black" stroke-width="2" d="M355.73,-146.53C355.73,-128.73 355.73,-108.18 355.73,-90.62"/>
<text text-anchor="middle" x="390.23" y="-119.07" font-family="sans-serif" font-size="12.00">Partnership</text>
</g>
<!-- RastreoOrdenes -->
<g id="node6" class="node">
<title>RastreoOrdenes</title>
<polygon fill="none" stroke="black" stroke-width="2" points="20.61,-27.18 24.45,-24.67 28.56,-22.24 32.93,-19.89 37.53,-17.64 42.36,-15.5 47.39,-13.46 52.6,-11.55 57.98,-9.77 63.52,-8.12 69.19,-6.62 74.98,-5.26 80.87,-4.06 86.84,-3.01 92.88,-2.13 98.97,-1.41 105.09,-0.85 111.23,-0.45 117.37,-0.23 123.5,-0.16 129.6,-0.26 135.66,-0.52 141.66,-0.94 147.6,-1.51 153.45,-2.23 159.22,-3.09 164.88,-4.09 170.42,-5.22 175.83,-6.47 181.11,-7.85 186.24,-9.33 191.22,-10.92 196.03,-12.6 200.67,-14.37 205.12,-16.22 209.38,-18.14 213.44,-20.12 217.3,-22.15 220.94,-24.24 224.36,-26.35 227.55,-28.5 230.5,-30.68 233.21,-32.87 235.67,-35.06 237.88,-37.27 239.82,-39.46 241.5,-41.65 242.9,-43.83 244.03,-45.99 244.87,-48.12 245.43,-50.23 245.69,-52.3 245.66,-54.34 245.33,-56.35 244.7,-58.31 243.76,-60.24 242.52,-62.12 240.98,-63.95 239.12,-65.74 236.96,-67.48 234.5,-69.17 231.73,-70.81 228.67,-72.39 225.31,-73.93 221.66,-75.41 217.73,-76.84 213.52,-78.22 209.04,-79.54 204.3,-80.8 199.32,-82 194.09,-83.14 188.64,-84.23 182.98,-85.24 177.13,-86.2 171.09,-87.08 164.89,-87.9 158.54,-88.64 152.06,-89.31 145.47,-89.89 138.79,-90.4 132.04,-90.82 125.24,-91.16 118.42,-91.4 111.59,-91.55 104.79,-91.6 98.02,-91.55 91.31,-91.39 84.69,-91.13 78.18,-90.75 71.8,-90.27 65.57,-89.66 59.52,-88.94 53.66,-88.1 48.02,-87.15 42.61,-86.07 37.46,-84.86 32.58,-83.54 27.99,-82.1 23.7,-80.54 19.73,-78.87 16.1,-77.08 12.8,-75.18 9.86,-73.17 7.29,-71.07 5.08,-68.87 3.25,-66.58 1.8,-64.2 0.74,-61.75 0.06,-59.23 -0.23,-56.66 -0.14,-54.03 0.33,-51.36 1.18,-48.66 2.4,-45.94 3.99,-43.2 5.93,-40.47 8.22,-37.75 10.84,-35.05 13.79,-32.38 17.05,-29.75 20.61,-27.18"/>
<text text-anchor="middle" x="126.73" y="-45.04" font-family="sans-serif" font-size="16.00">RastreoOrdenes</text>
</g>
<!-- ManejoOrdenes&#45;&gt;RastreoOrdenes -->
<g id="edge5" class="edge">
<title>ManejoOrdenes&#45;&gt;RastreoOrdenes</title>
<path fill="none" stroke="black" stroke-width="2" d="M297.95,-154.34C263.23,-133.15 219.21,-106.28 184.5,-85.1"/>
<text text-anchor="middle" x="290.23" y="-119.07" font-family="sans-serif" font-size="12.00">Partnership</text>
</g>
<!-- Almacenamiento -->
<g id="node7" class="node">
<title>Almacenamiento</title>
<polygon fill="none" stroke="black" stroke-width="2" points="830.78,-583.42 838.37,-582.19 846.06,-581.09 853.82,-580.11 861.62,-579.26 869.42,-578.54 877.2,-577.95 884.93,-577.5 892.59,-577.19 900.13,-577.03 907.55,-577.01 914.81,-577.13 921.89,-577.4 928.77,-577.81 935.44,-578.37 941.86,-579.07 948.03,-579.91 953.93,-580.89 959.54,-582 964.87,-583.25 969.88,-584.61 974.59,-586.1 978.98,-587.71 983.05,-589.43 986.79,-591.24 990.21,-593.16 993.3,-595.17 996.06,-597.25 998.51,-599.42 1000.63,-601.64 1002.43,-603.93 1003.93,-606.27 1005.12,-608.65 1006.02,-611.06 1006.62,-613.5 1006.94,-615.96 1006.98,-618.42 1006.75,-620.89 1006.26,-623.34 1005.52,-625.78 1004.53,-628.2 1003.3,-630.58 1001.83,-632.93 1000.13,-635.23 998.22,-637.48 996.08,-639.68 993.73,-641.8 991.18,-643.86 988.42,-645.85 985.46,-647.76 982.3,-649.58 978.95,-651.32 975.4,-652.97 971.67,-654.53 967.74,-655.99 963.63,-657.35 959.34,-658.61 954.86,-659.77 950.21,-660.83 945.37,-661.78 940.36,-662.63 935.19,-663.38 929.84,-664.02 924.34,-664.55 918.68,-664.98 912.87,-665.31 906.92,-665.54 900.84,-665.66 894.63,-665.68 888.32,-665.6 881.9,-665.43 875.4,-665.15 868.83,-664.78 862.21,-664.32 855.55,-663.76 848.87,-663.11 842.19,-662.37 835.53,-661.54 828.91,-660.63 822.35,-659.63 815.88,-658.55 809.53,-657.38 803.3,-656.14 797.24,-654.82 791.36,-653.42 785.7,-651.95 780.26,-650.4 775.08,-648.79 770.19,-647.11 765.6,-645.37 761.34,-643.57 757.44,-641.7 753.9,-639.79 750.75,-637.82 748.02,-635.8 745.7,-633.74 743.83,-631.64 742.41,-629.5 741.45,-627.33 740.96,-625.13 740.95,-622.91 741.42,-620.68 742.37,-618.43 743.81,-616.18 745.73,-613.93 748.12,-611.69 750.98,-609.46 754.3,-607.25 758.06,-605.06 762.25,-602.91 766.86,-600.8 771.86,-598.74 777.24,-596.73 782.97,-594.78 789.03,-592.9 795.39,-591.09 802.03,-589.37 808.92,-587.73 816.03,-586.19 823.32,-584.75 830.78,-583.42"/>
<text text-anchor="middle" x="883.73" y="-619.59" font-family="sans-serif" font-size="16.00">Almacenamiento</text>
</g>
<!-- Almacenamiento&#45;&gt;Abastecimiento -->
<g id="edge7" class="edge">
<title>Almacenamiento&#45;&gt;Abastecimiento</title>
<path fill="none" stroke="black" stroke-width="2" d="M833.66,-582.72C816.65,-569.97 797.26,-556.2 778.73,-544.78 759.78,-533.1 738.5,-521.68 718.73,-511.72"/>
<text text-anchor="middle" x="831.23" y="-548.18" font-family="sans-serif" font-size="12.00">Partnership</text>
</g>
<!-- Empaquetado -->
<g id="node8" class="node">
<title>Empaquetado</title>
<polygon fill="none" stroke="black" stroke-width="2" points="493.64,-471.65 494.8,-474.48 495.65,-477.3 496.19,-480.11 496.41,-482.9 496.3,-485.65 495.87,-488.36 495.12,-491.02 494.04,-493.61 492.65,-496.13 490.93,-498.56 488.9,-500.91 486.55,-503.15 483.9,-505.29 480.96,-507.32 477.72,-509.23 474.2,-511.02 470.42,-512.69 466.37,-514.22 462.08,-515.62 457.55,-516.89 452.8,-518.02 447.84,-519.02 442.7,-519.88 437.38,-520.61 431.9,-521.2 426.28,-521.66 420.54,-521.99 414.7,-522.2 408.77,-522.28 402.77,-522.24 396.72,-522.09 390.64,-521.83 384.56,-521.46 378.48,-520.98 372.43,-520.41 366.42,-519.75 360.48,-519 354.62,-518.16 348.86,-517.25 343.21,-516.26 337.7,-515.2 332.34,-514.08 327.14,-512.89 322.12,-511.64 317.29,-510.34 312.67,-508.98 308.26,-507.58 304.09,-506.13 300.15,-504.64 296.46,-503.1 293.03,-501.53 289.86,-499.91 286.97,-498.26 284.35,-496.57 282.02,-494.85 279.97,-493.1 278.22,-491.31 276.75,-489.5 275.59,-487.65 274.71,-485.78 274.13,-483.88 273.85,-481.95 273.86,-480 274.16,-478.03 274.75,-476.03 275.62,-474.02 276.77,-472 278.19,-469.96 279.89,-467.91 281.85,-465.86 284.07,-463.81 286.53,-461.76 289.24,-459.71 292.19,-457.68 295.37,-455.67 298.76,-453.69 302.36,-451.73 306.17,-449.82 310.16,-447.95 314.34,-446.12 318.69,-444.36 323.2,-442.67 327.87,-441.04 332.67,-439.5 337.6,-438.05 342.66,-436.69 347.81,-435.44 353.07,-434.3 358.4,-433.28 363.81,-432.38 369.27,-431.61 374.78,-430.98 380.32,-430.49 385.89,-430.14 391.46,-429.95 397.02,-429.92 402.56,-430.04 408.07,-430.32 413.53,-430.77 418.94,-431.37 424.26,-432.14 429.5,-433.07 434.64,-434.16 439.66,-435.41 444.55,-436.81 449.3,-438.36 453.89,-440.05 458.3,-441.88 462.54,-443.85 466.58,-445.94 470.41,-448.14 474.02,-450.46 477.4,-452.87 480.53,-455.37 483.41,-457.95 486.02,-460.6 488.36,-463.31 490.41,-466.06 492.18,-468.84 493.64,-471.65"/>
<text text-anchor="middle" x="383.73" y="-474.21" font-family="sans-serif" font-size="16.00">Empaquetado</text>
</g>
<!-- Almacenamiento&#45;&gt;Empaquetado -->
<g id="edge6" class="edge">
<title>Almacenamiento&#45;&gt;Empaquetado</title>
<path fill="none" stroke="black" stroke-width="2" d="M800.64,-589.6C757.69,-573.84 704.06,-555.99 654.73,-544.78 589.69,-530 570.42,-543.07 505.73,-526.78 492.72,-523.5 479.22,-519.2 466.16,-514.51"/>
<text text-anchor="middle" x="734.23" y="-548.18" font-family="sans-serif" font-size="12.00">Partnership</text>
</g>
<!-- Recibimiento -->
<g id="node9" class="node">
<title>Recibimiento</title>
<polygon fill="none" stroke="black" stroke-width="2" points="816.63,-457.73 819.76,-455.18 823.13,-452.7 826.73,-450.3 830.54,-448 834.55,-445.8 838.75,-443.7 843.12,-441.73 847.65,-439.88 852.33,-438.17 857.13,-436.6 862.05,-435.17 867.07,-433.9 872.17,-432.78 877.35,-431.82 882.58,-431.03 887.85,-430.39 893.16,-429.93 898.48,-429.62 903.8,-429.48 909.11,-429.5 914.4,-429.69 919.66,-430.03 924.87,-430.52 930.02,-431.17 935.1,-431.95 940.11,-432.88 945.02,-433.94 949.84,-435.13 954.54,-436.43 959.13,-437.85 963.59,-439.37 967.92,-440.99 972.1,-442.7 976.13,-444.49 979.99,-446.35 983.69,-448.27 987.22,-450.26 990.56,-452.29 993.71,-454.36 996.66,-456.46 999.42,-458.6 1001.96,-460.75 1004.28,-462.91 1006.39,-465.08 1008.27,-467.25 1009.91,-469.41 1011.31,-471.57 1012.48,-473.7 1013.39,-475.82 1014.05,-477.92 1014.46,-479.99 1014.6,-482.02 1014.49,-484.03 1014.1,-486 1013.45,-487.93 1012.53,-489.82 1011.34,-491.67 1009.88,-493.48 1008.15,-495.24 1006.15,-496.96 1003.89,-498.63 1001.36,-500.25 998.57,-501.83 995.52,-503.35 992.22,-504.83 988.68,-506.25 984.89,-507.62 980.88,-508.94 976.65,-510.2 972.2,-511.41 967.56,-512.56 962.72,-513.64 957.71,-514.67 952.54,-515.63 947.21,-516.52 941.75,-517.34 936.18,-518.08 930.5,-518.75 924.73,-519.34 918.9,-519.85 913.02,-520.27 907.11,-520.6 901.19,-520.83 895.27,-520.96 889.38,-521 883.54,-520.92 877.76,-520.74 872.07,-520.45 866.48,-520.04 861.01,-519.52 855.69,-518.88 850.53,-518.11 845.54,-517.23 840.75,-516.22 836.17,-515.08 831.81,-513.83 827.7,-512.45 823.84,-510.94 820.24,-509.32 816.93,-507.58 813.91,-505.73 811.18,-503.76 808.76,-501.69 806.66,-499.52 804.87,-497.26 803.41,-494.91 802.28,-492.48 801.48,-489.97 801,-487.41 800.86,-484.78 801.05,-482.11 801.56,-479.41 802.39,-476.67 803.54,-473.93 804.99,-471.18 806.75,-468.43 808.8,-465.7 811.14,-463 813.75,-460.34 816.63,-457.73"/>
<text text-anchor="middle" x="910.73" y="-474.21" font-family="sans-serif" font-size="16.00">Recibimiento</text>
</g>
<!-- Almacenamiento&#45;&gt;Recibimiento -->
<g id="edge8" class="edge">
<title>Almacenamiento&#45;&gt;Recibimiento</title>
<path fill="none" stroke="black" stroke-width="2" d="M892.28,-577.02C895.64,-559.14 899.49,-538.71 902.8,-521.16"/>
<text text-anchor="middle" x="933.23" y="-548.18" font-family="sans-serif" font-size="12.00">Partnership</text>
</g>
<!-- Empaquetado&#45;&gt;Inventario -->
<g id="edge9" class="edge">
<title>Empaquetado&#45;&gt;Inventario</title>
<path fill="none" stroke="black" stroke-width="2" d="M374.72,-430.62C371.33,-413.18 367.49,-393.43 364.16,-376.27"/>
<text text-anchor="middle" x="446.23" y="-401.65" font-family="sans-serif" font-size="12.00"> &#160;&#160;&#160;&#160;&#160;&#160;&#160;&#160;&#160;&#160;&#160;&#160;&#160;&#160;&#160;&#160;&#160;&#160;&#160;&#160;&#160;&#160;&#160;&#160;&#160;&#160;&#160;&#160;&#160;&#160;&#160;&#160;&#160;&#160;&#160;&#160;&#160;&#160;&#160;</text>
<polygon fill="white" stroke="transparent" points="357.16,-367.27 357.16,-384.27 371.16,-384.27 371.16,-367.27 357.16,-367.27"/>
<text text-anchor="start" x="359.16" y="-372.67" font-family="sans-serif" font-size="12.00">D</text>
<polygon fill="white" stroke="transparent" points="367.72,-421.62 367.72,-438.62 381.72,-438.62 381.72,-421.62 367.72,-421.62"/>
<text text-anchor="start" x="369.72" y="-427.02" font-family="sans-serif" font-size="12.00">U</text>
</g>
<!-- DistribuirAlimentos -->
<g id="node10" class="node">
<title>DistribuirAlimentos</title>
<polygon fill="none" stroke="black" stroke-width="2" points="153.93,-624.43 153.58,-621.55 153.62,-618.69 154.04,-615.86 154.87,-613.06 156.08,-610.32 157.68,-607.63 159.67,-605.01 162.04,-602.48 164.79,-600.03 167.9,-597.68 171.38,-595.44 175.21,-593.31 179.38,-591.3 183.89,-589.41 188.71,-587.66 193.84,-586.04 199.26,-584.56 204.95,-583.22 210.9,-582.03 217.1,-580.98 223.52,-580.08 230.15,-579.33 236.96,-578.71 243.94,-578.25 251.06,-577.92 258.31,-577.73 265.67,-577.67 273.1,-577.75 280.6,-577.96 288.13,-578.28 295.68,-578.73 303.22,-579.28 310.74,-579.95 318.2,-580.71 325.59,-581.58 332.89,-582.53 340.07,-583.57 347.12,-584.68 354.01,-585.88 360.72,-587.14 367.24,-588.46 373.55,-589.84 379.63,-591.28 385.45,-592.77 391.02,-594.3 396.3,-595.88 401.3,-597.49 405.98,-599.14 410.35,-600.83 414.39,-602.54 418.09,-604.28 421.44,-606.05 424.44,-607.83 427.07,-609.65 429.33,-611.48 431.22,-613.33 432.73,-615.2 433.85,-617.08 434.6,-618.98 434.96,-620.9 434.94,-622.82 434.55,-624.76 433.77,-626.71 432.62,-628.67 431.1,-630.63 429.21,-632.59 426.97,-634.56 424.38,-636.53 421.44,-638.49 418.17,-640.45 414.57,-642.39 410.66,-644.32 406.45,-646.23 401.95,-648.12 397.16,-649.97 392.12,-651.79 386.81,-653.57 381.28,-655.3 375.51,-656.98 369.54,-658.59 363.37,-660.14 357.03,-661.62 350.53,-663.02 343.88,-664.32 337.1,-665.54 330.21,-666.65 323.23,-667.65 316.17,-668.54 309.06,-669.3 301.9,-669.94 294.72,-670.44 287.54,-670.81 280.38,-671.03 273.24,-671.1 266.16,-671.02 259.14,-670.79 252.22,-670.4 245.39,-669.85 238.69,-669.15 232.13,-668.28 225.73,-667.25 219.5,-666.07 213.47,-664.74 207.64,-663.25 202.04,-661.61 196.67,-659.83 191.56,-657.92 186.72,-655.88 182.16,-653.71 177.9,-651.43 173.94,-649.04 170.31,-646.55 167.01,-643.98 164.05,-641.33 161.44,-638.61 159.19,-635.84 157.31,-633.02 155.8,-630.18 154.67,-627.31 153.93,-624.43"/>
<text text-anchor="middle" x="294.73" y="-619.59" font-family="sans-serif" font-size="16.00">DistribuirAlimentos</text>
</g>
<!-- DistribuirAlimentos&#45;&gt;Empaquetado -->
<g id="edge10" class="edge">
<title>DistribuirAlimentos&#45;&gt;Empaquetado</title>
<path fill="none" stroke="black" stroke-width="2" d="M312.16,-579.92C317.57,-568.23 323.91,-555.75 330.73,-544.78 336.46,-535.56 343.31,-526.18 350.15,-517.5"/>
<text text-anchor="middle" x="406.23" y="-548.18" font-family="sans-serif" font-size="12.00"> &#160;&#160;&#160;&#160;&#160;&#160;&#160;&#160;&#160;&#160;&#160;&#160;&#160;&#160;&#160;&#160;&#160;&#160;&#160;&#160;&#160;&#160;&#160;&#160;&#160;&#160;&#160;&#160;&#160;&#160;&#160;&#160;&#160;&#160;&#160;&#160;&#160;&#160;&#160;</text>
<polygon fill="white" stroke="transparent" points="343.15,-508.5 343.15,-525.5 357.15,-525.5 357.15,-508.5 343.15,-508.5"/>
<text text-anchor="start" x="345.15" y="-513.9" font-family="sans-serif" font-size="12.00">D</text>
<polygon fill="white" stroke="transparent" points="305.16,-570.92 305.16,-587.92 319.16,-587.92 319.16,-570.92 305.16,-570.92"/>
<text text-anchor="start" x="307.16" y="-576.32" font-family="sans-serif" font-size="12.00">U</text>
</g>
<!-- DistribuirBienes -->
<g id="node11" class="node">
<title>DistribuirBienes</title>
<polygon fill="none" stroke="black" stroke-width="2" points="547.59,-664.82 540.02,-663.89 532.62,-662.86 525.4,-661.72 518.4,-660.48 511.65,-659.14 505.18,-657.71 499.01,-656.19 493.17,-654.59 487.67,-652.92 482.54,-651.17 477.8,-649.35 473.47,-647.47 469.55,-645.53 466.07,-643.55 463.02,-641.51 460.42,-639.44 458.27,-637.33 456.57,-635.19 455.33,-633.02 454.54,-630.84 454.2,-628.65 454.3,-626.44 454.84,-624.24 455.79,-622.04 457.16,-619.84 458.93,-617.66 461.08,-615.5 463.59,-613.35 466.46,-611.24 469.65,-609.16 473.15,-607.12 476.95,-605.12 481.01,-603.17 485.32,-601.26 489.86,-599.42 494.6,-597.63 499.53,-595.91 504.63,-594.25 509.87,-592.67 515.23,-591.16 520.69,-589.74 526.25,-588.39 531.87,-587.14 537.54,-585.97 543.26,-584.9 548.99,-583.92 554.74,-583.04 560.48,-582.26 566.2,-581.59 571.9,-581.03 577.57,-580.57 583.2,-580.23 588.77,-579.99 594.29,-579.88 599.75,-579.87 605.13,-579.98 610.45,-580.21 615.69,-580.56 620.86,-581.02 625.94,-581.6 630.93,-582.3 635.83,-583.11 640.65,-584.03 645.37,-585.07 649.98,-586.21 654.5,-587.47 658.91,-588.83 663.2,-590.29 667.38,-591.85 671.44,-593.5 675.36,-595.24 679.15,-597.08 682.79,-598.99 686.28,-600.98 689.6,-603.03 692.75,-605.16 695.72,-607.34 698.48,-609.58 701.04,-611.86 703.38,-614.18 705.48,-616.53 707.33,-618.91 708.93,-621.31 710.25,-623.71 711.29,-626.12 712.03,-628.53 712.45,-630.92 712.55,-633.3 712.32,-635.65 711.75,-637.96 710.82,-640.24 709.53,-642.46 707.87,-644.63 705.84,-646.74 703.43,-648.77 700.64,-650.74 697.48,-652.62 693.93,-654.41 690.01,-656.11 685.72,-657.71 681.07,-659.21 676.06,-660.61 670.71,-661.89 665.04,-663.05 659.05,-664.1 652.77,-665.03 646.21,-665.84 639.4,-666.52 632.36,-667.07 625.11,-667.5 617.68,-667.79 610.1,-667.96 602.39,-668.01 594.59,-667.92 586.73,-667.71 578.84,-667.37 570.95,-666.91 563.09,-666.33 555.29,-665.63 547.59,-664.82"/>
<text text-anchor="middle" x="588.73" y="-619.59" font-family="sans-serif" font-size="16.00">DistribuirBienes</text>
</g>
<!-- DistribuirBienes&#45;&gt;Empaquetado -->
<g id="edge11" class="edge">
<title>DistribuirBienes&#45;&gt;Empaquetado</title>
<path fill="none" stroke="black" stroke-width="2" d="M538.92,-585.68C520.99,-572.63 500.55,-557.91 481.73,-544.78 469.89,-536.51 457.13,-527.81 444.87,-519.54"/>
<text text-anchor="middle" x="575.23" y="-548.18" font-family="sans-serif" font-size="12.00"> &#160;&#160;&#160;&#160;&#160;&#160;&#160;&#160;&#160;&#160;&#160;&#160;&#160;&#160;&#160;&#160;&#160;&#160;&#160;&#160;&#160;&#160;&#160;&#160;&#160;&#160;&#160;&#160;&#160;&#160;&#160;&#160;&#160;&#160;&#160;&#160;&#160;&#160;&#160;</text>
<polygon fill="white" stroke="transparent" points="437.87,-510.54 437.87,-527.54 451.87,-527.54 451.87,-510.54 437.87,-510.54"/>
<text text-anchor="start" x="439.87" y="-515.94" font-family="sans-serif" font-size="12.00">D</text>
<polygon fill="white" stroke="transparent" points="531.92,-576.68 531.92,-593.68 545.92,-593.68 545.92,-576.68 531.92,-576.68"/>
<text text-anchor="start" x="533.92" y="-582.08" font-family="sans-serif" font-size="12.00">U</text>
</g>
<!-- EntregaPedidos -->
<g id="node12" class="node">
<title>EntregaPedidos</title>
<polygon fill="none" stroke="black" stroke-width="2" points="253.31,-889.63 256.27,-892.28 258.9,-894.96 261.19,-897.65 263.14,-900.35 264.72,-903.05 265.94,-905.74 266.79,-908.39 267.26,-911.02 267.34,-913.6 267.03,-916.13 266.34,-918.6 265.26,-921 263.8,-923.32 261.95,-925.57 259.73,-927.72 257.14,-929.78 254.18,-931.74 250.87,-933.59 247.22,-935.34 243.25,-936.98 238.95,-938.51 234.36,-939.92 229.48,-941.22 224.34,-942.4 218.95,-943.47 213.33,-944.41 207.5,-945.25 201.49,-945.97 195.31,-946.57 188.98,-947.07 182.53,-947.46 175.98,-947.74 169.36,-947.92 162.68,-948 155.97,-947.98 149.25,-947.86 142.54,-947.66 135.87,-947.36 129.25,-946.98 122.71,-946.51 116.27,-945.97 109.94,-945.35 103.75,-944.65 97.7,-943.88 91.83,-943.04 86.14,-942.12 80.64,-941.15 75.36,-940.1 70.3,-938.99 65.48,-937.82 60.9,-936.59 56.58,-935.29 52.52,-933.94 48.74,-932.52 45.22,-931.05 41.99,-929.52 39.05,-927.93 36.39,-926.29 34.03,-924.59 31.96,-922.84 30.18,-921.04 28.69,-919.18 27.5,-917.28 26.6,-915.32 25.99,-913.33 25.67,-911.29 25.63,-909.21 25.87,-907.09 26.39,-904.94 27.19,-902.76 28.25,-900.56 29.58,-898.34 31.17,-896.11 33.02,-893.87 35.12,-891.62 37.46,-889.38 40.04,-887.16 42.86,-884.95 45.9,-882.77 49.17,-880.62 52.66,-878.51 56.35,-876.46 60.26,-874.46 64.35,-872.53 68.64,-870.67 73.12,-868.9 77.76,-867.22 82.58,-865.64 87.56,-864.17 92.68,-862.81 97.95,-861.57 103.35,-860.47 108.87,-859.5 114.51,-858.67 120.24,-857.99 126.07,-857.46 131.97,-857.09 137.93,-856.87 143.94,-856.82 149.99,-856.94 156.07,-857.21 162.14,-857.66 168.21,-858.26 174.25,-859.03 180.26,-859.97 186.2,-861.06 192.06,-862.3 197.84,-863.7 203.5,-865.24 209.03,-866.92 214.41,-868.74 219.63,-870.68 224.66,-872.73 229.5,-874.89 234.11,-877.16 238.49,-879.51 242.61,-881.95 246.47,-884.45 250.04,-887.01 253.31,-889.63"/>
<text text-anchor="middle" x="141.73" y="-901.79" font-family="sans-serif" font-size="16.00">EntregaPedidos</text>
</g>
<!-- EntregaPedidos&#45;&gt;RastreoOrdenes -->
<g id="edge12" class="edge">
<title>EntregaPedidos&#45;&gt;RastreoOrdenes</title>
<path fill="none" stroke="black" stroke-width="2" d="M133.54,-856.88C129.61,-829.95 125.73,-795.62 125.73,-764.85 125.73,-764.85 125.73,-764.85 125.73,-189.61 125.73,-156.49 126.02,-118.95 126.28,-91.12"/>
<text text-anchor="middle" x="160.23" y="-474.91" font-family="sans-serif" font-size="12.00">Partnership</text>
</g>
<!-- EntregaPorTerceros -->
<g id="node13" class="node">
<title>EntregaPorTerceros</title>
<polygon fill="none" stroke="black" stroke-width="2" points="288.93,-807.44 279.79,-807.2 270.74,-806.84 261.82,-806.37 253.08,-805.78 244.53,-805.07 236.22,-804.25 228.18,-803.32 220.44,-802.28 213.03,-801.13 205.97,-799.89 199.3,-798.54 193.02,-797.1 187.16,-795.57 181.75,-793.95 176.78,-792.25 172.29,-790.47 168.26,-788.62 164.73,-786.7 161.67,-784.71 159.11,-782.67 157.04,-780.58 155.45,-778.45 154.34,-776.27 153.71,-774.06 153.53,-771.82 153.82,-769.56 154.54,-767.28 155.69,-764.99 157.24,-762.7 159.19,-760.42 161.51,-758.14 164.19,-755.88 167.21,-753.64 170.54,-751.43 174.16,-749.25 178.07,-747.12 182.22,-745.02 186.62,-742.98 191.22,-741 196.03,-739.08 201.01,-737.23 206.16,-735.45 211.45,-733.75 216.86,-732.13 222.39,-730.6 228.02,-729.16 233.74,-727.81 239.53,-726.57 245.39,-725.42 251.3,-724.38 257.25,-723.45 263.25,-722.63 269.27,-721.92 275.33,-721.33 281.4,-720.85 287.48,-720.5 293.58,-720.26 299.68,-720.14 305.78,-720.14 311.89,-720.26 317.98,-720.5 324.07,-720.85 330.14,-721.33 336.19,-721.92 342.22,-722.63 348.21,-723.45 354.17,-724.38 360.08,-725.42 365.93,-726.57 371.73,-727.81 377.44,-729.16 383.07,-730.6 388.6,-732.13 394.02,-733.75 399.31,-735.45 404.45,-737.23 409.43,-739.08 414.24,-741 418.85,-742.98 423.24,-745.02 427.4,-747.12 431.3,-749.25 434.93,-751.43 438.26,-753.64 441.27,-755.88 443.95,-758.14 446.27,-760.42 448.22,-762.7 449.78,-764.99 450.93,-767.28 451.65,-769.56 451.93,-771.82 451.76,-774.06 451.12,-776.27 450.02,-778.45 448.43,-780.58 446.35,-782.67 443.79,-784.71 440.74,-786.7 437.2,-788.62 433.18,-790.47 428.68,-792.25 423.72,-793.95 418.3,-795.57 412.45,-797.1 406.17,-798.54 399.49,-799.89 392.43,-801.13 385.02,-802.28 377.28,-803.32 369.24,-804.25 360.93,-805.07 352.39,-805.78 343.64,-806.37 334.73,-806.84 325.68,-807.2 316.54,-807.44 307.34,-807.56 298.12,-807.56 288.93,-807.44"/>
<text text-anchor="middle" x="302.73" y="-760.05" font-family="sans-serif" font-size="16.00">EntregaPorTerceros</text>
</g>
<!-- EntregaPedidos&#45;&gt;EntregaPorTerceros -->
<g id="edge13" class="edge">
<title>EntregaPedidos&#45;&gt;EntregaPorTerceros</title>
<path fill="none" stroke="black" stroke-width="2" d="M190.91,-861.9C211.35,-844.16 234.98,-823.66 255.23,-806.07"/>
<text text-anchor="middle" x="308.23" y="-829.1" font-family="sans-serif" font-size="12.00"> &#160;&#160;&#160;&#160;&#160;&#160;&#160;&#160;&#160;&#160;&#160;&#160;&#160;&#160;&#160;&#160;&#160;&#160;&#160;&#160;&#160;&#160;&#160;&#160;&#160;&#160;&#160;&#160;&#160;&#160;&#160;&#160;&#160;&#160;&#160;&#160;&#160;&#160;&#160;</text>
<polygon fill="white" stroke="transparent" points="232.23,-796.07 232.23,-815.07 248.23,-815.07 248.23,-796.07 232.23,-796.07"/>
<polyline fill="none" stroke="black" points="248.23,-796.07 248.23,-815.07 "/>
<text text-anchor="start" x="235.23" y="-802.47" font-family="sans-serif" font-size="12.00">D</text>
<polygon fill="white" stroke="transparent" points="248.23,-796.07 248.23,-815.07 278.23,-815.07 278.23,-796.07 248.23,-796.07"/>
<polygon fill="none" stroke="black" points="248.23,-796.07 248.23,-815.07 278.23,-815.07 278.23,-796.07 248.23,-796.07"/>
<text text-anchor="start" x="251.23" y="-802.47" font-family="sans-serif" font-size="12.00">ACL</text>
<polygon fill="white" stroke="transparent" points="183.91,-852.9 183.91,-869.9 197.91,-869.9 197.91,-852.9 183.91,-852.9"/>
<text text-anchor="start" x="185.91" y="-858.3" font-family="sans-serif" font-size="12.00">U</text>
</g>
<!-- EntregaPorTerceros&#45;&gt;DistribuirAlimentos -->
<g id="edge14" class="edge">
<title>EntregaPorTerceros&#45;&gt;DistribuirAlimentos</title>
<path fill="none" stroke="black" stroke-width="2" d="M300.24,-719.8C299.34,-704.08 298.31,-686.25 297.38,-670.29"/>
<text text-anchor="middle" x="375.23" y="-692.39" font-family="sans-serif" font-size="12.00"> &#160;&#160;&#160;&#160;&#160;&#160;&#160;&#160;&#160;&#160;&#160;&#160;&#160;&#160;&#160;&#160;&#160;&#160;&#160;&#160;&#160;&#160;&#160;&#160;&#160;&#160;&#160;&#160;&#160;&#160;&#160;&#160;&#160;&#160;&#160;&#160;&#160;&#160;&#160;</text>
<polygon fill="white" stroke="transparent" points="290.38,-661.29 290.38,-678.29 304.38,-678.29 304.38,-661.29 290.38,-661.29"/>
<text text-anchor="start" x="292.38" y="-666.69" font-family="sans-serif" font-size="12.00">D</text>
<polygon fill="white" stroke="transparent" points="293.24,-710.8 293.24,-727.8 307.24,-727.8 307.24,-710.8 293.24,-710.8"/>
<text text-anchor="start" x="295.24" y="-716.2" font-family="sans-serif" font-size="12.00">U</text>
</g>
<!-- EntregaPorTerceros&#45;&gt;DistribuirBienes -->
<g id="edge15" class="edge">
<title>EntregaPorTerceros&#45;&gt;DistribuirBienes</title>
<path fill="none" stroke="black" stroke-width="2" d="M386.9,-731.66C409.23,-722.71 433.13,-712.5 454.73,-701.99 479.15,-690.11 505.16,-675.53 527.7,-662.22"/>
<text text-anchor="middle" x="553.23" y="-692.39" font-family="sans-serif" font-size="12.00"> &#160;&#160;&#160;&#160;&#160;&#160;&#160;&#160;&#160;&#160;&#160;&#160;&#160;&#160;&#160;&#160;&#160;&#160;&#160;&#160;&#160;&#160;&#160;&#160;&#160;&#160;&#160;&#160;&#160;&#160;&#160;&#160;&#160;&#160;&#160;&#160;&#160;&#160;&#160;</text>
<polygon fill="white" stroke="transparent" points="520.7,-653.22 520.7,-670.22 534.7,-670.22 534.7,-653.22 520.7,-653.22"/>
<text text-anchor="start" x="522.7" y="-658.62" font-family="sans-serif" font-size="12.00">D</text>
<polygon fill="white" stroke="transparent" points="379.9,-722.66 379.9,-739.66 393.9,-739.66 393.9,-722.66 379.9,-722.66"/>
<text text-anchor="start" x="381.9" y="-728.06" font-family="sans-serif" font-size="12.00">U</text>
</g>
<!-- Retornos -->
<g id="node14" class="node">
<title>Retornos</title>
<polygon fill="none" stroke="black" stroke-width="2" points="932.68,-299.54 936.58,-297.58 940.59,-295.72 944.73,-293.97 948.95,-292.34 953.26,-290.83 957.63,-289.46 962.05,-288.22 966.51,-287.12 970.98,-286.16 975.46,-285.36 979.92,-284.71 984.37,-284.22 988.77,-283.89 993.12,-283.72 997.41,-283.71 1001.63,-283.85 1005.76,-284.16 1009.8,-284.62 1013.74,-285.24 1017.57,-286.01 1021.27,-286.93 1024.85,-287.99 1028.3,-289.19 1031.61,-290.52 1034.79,-291.98 1037.81,-293.56 1040.68,-295.25 1043.41,-297.05 1045.97,-298.94 1048.38,-300.92 1050.63,-302.98 1052.73,-305.12 1054.66,-307.31 1056.42,-309.56 1058.03,-311.86 1059.47,-314.2 1060.75,-316.56 1061.87,-318.94 1062.82,-321.34 1063.61,-323.73 1064.24,-326.13 1064.7,-328.51 1065,-330.88 1065.14,-333.21 1065.11,-335.52 1064.91,-337.79 1064.55,-340.01 1064.02,-342.19 1063.33,-344.31 1062.47,-346.38 1061.44,-348.38 1060.24,-350.32 1058.88,-352.19 1057.34,-353.99 1055.64,-355.72 1053.76,-357.37 1051.72,-358.94 1049.51,-360.44 1047.13,-361.85 1044.59,-363.19 1041.89,-364.44 1039.02,-365.61 1036,-366.7 1032.82,-367.7 1029.49,-368.63 1026.02,-369.47 1022.41,-370.23 1018.67,-370.9 1014.8,-371.49 1010.82,-372 1006.73,-372.43 1002.54,-372.77 998.26,-373.03 993.91,-373.2 989.49,-373.29 985.02,-373.29 980.51,-373.2 975.98,-373.03 971.44,-372.78 966.9,-372.43 962.38,-371.99 957.9,-371.47 953.47,-370.85 949.11,-370.15 944.83,-369.35 940.65,-368.46 936.59,-367.47 932.66,-366.39 928.88,-365.22 925.27,-363.96 921.83,-362.6 918.59,-361.16 915.55,-359.62 912.73,-357.99 910.15,-356.28 907.8,-354.48 905.71,-352.6 903.88,-350.64 902.32,-348.61 901.04,-346.5 900.04,-344.33 899.32,-342.1 898.9,-339.81 898.76,-337.47 898.92,-335.09 899.37,-332.67 900.1,-330.22 901.12,-327.75 902.42,-325.27 904,-322.78 905.84,-320.29 907.93,-317.82 910.28,-315.36 912.87,-312.94 915.68,-310.55 918.7,-308.22 921.93,-305.94 925.35,-303.73 928.94,-301.59 932.68,-299.54"/>
<text text-anchor="middle" x="987.73" y="-328.1" font-family="sans-serif" font-size="16.00">Retornos</text>
</g>
<!-- Retornos&#45;&gt;ManejoOrdenes -->
<g id="edge16" class="edge">
<title>Retornos&#45;&gt;ManejoOrdenes</title>
<path fill="none" stroke="black" stroke-width="2" d="M931.06,-300.22C917.79,-293.97 903.5,-287.97 889.73,-283.55 753.57,-239.89 590.84,-215.67 481.1,-203.19"/>
<text text-anchor="middle" x="854.23" y="-255.95" font-family="sans-serif" font-size="12.00">Partnership</text>
</g>
</g>
</svg>
